<?xml version="1.0" encoding="UTF-8"?>
<svg xmlns="http://www.w3.org/2000/svg" width="1500" height="2624" viewBox="0 0 1500 2624" role="img" aria-labelledby="title description">
  <title id="title">mumax³ 4-million-cell benchmark comparison</title>
  <desc id="description">A ranked horizontal bar chart containing 1 measured Apple Metal result(s), Apple Silicon projections, and 58 CUDA results published by the mumax³ website. Higher throughput is faster. Projections are not measurements.</desc>
  <style>
    text { font-family: -apple-system, BlinkMacSystemFont, "Segoe UI", sans-serif; fill: #182230; }
    .title { font-size: 26px; font-weight: 700; }
    .subtitle { font-size: 14px; fill: #52606d; }
    .axis { font-size: 12px; fill: #697586; }
    .label { font-size: 13px; }
    .value { font-size: 12px; font-variant-numeric: tabular-nums; }
    .note { font-size: 12px; fill: #52606d; }
  </style>
  <rect width="100%" height="100%" fill="#ffffff"/>
  <text class="title" x="20" y="38">mumax³ 4M-cell benchmark: Apple Silicon and published CUDA results</text>
  <text class="subtitle" x="20" y="64">Combined ordering by throughput (higher is faster) · CUDA snapshot checked 2026-07-31</text>
  <g aria-label="Legend">
    <rect x="20" y="86" width="18" height="12" rx="2" fill="#1473e6"/>
    <text class="subtitle" x="46" y="97">Apple Metal — measured</text>
    <rect x="226" y="86" width="18" height="12" rx="2" fill="#e67e22"/>
    <text class="subtitle" x="252" y="97">Apple Metal — estimated</text>
    <rect x="446" y="86" width="18" height="12" rx="2" fill="#9aa0a6"/>
    <text class="subtitle" x="472" y="97">Published mumax³ CUDA result</text>
  </g>
  <text class="subtitle" x="20" y="128">Orange entries are chip-level projections anchored to the blue M4 measurement; they are not hardware measurements or official mumax³ ranks.</text>
  <text class="axis" x="20" y="176">Combined position and device</text>
  <text class="axis" x="920" y="154" text-anchor="middle">Throughput (million cells/s)</text>
  <line x1="500" y1="184" x2="500" y2="2548" stroke="#e4e7ec" stroke-width="1"/>
  <text class="axis" x="500" y="176" text-anchor="middle">0</text>
  <line x1="605" y1="184" x2="605" y2="2548" stroke="#e4e7ec" stroke-width="1"/>
  <text class="axis" x="605" y="176" text-anchor="middle">250</text>
  <line x1="710" y1="184" x2="710" y2="2548" stroke="#e4e7ec" stroke-width="1"/>
  <text class="axis" x="710" y="176" text-anchor="middle">500</text>
  <line x1="815" y1="184" x2="815" y2="2548" stroke="#e4e7ec" stroke-width="1"/>
  <text class="axis" x="815" y="176" text-anchor="middle">750</text>
  <line x1="920" y1="184" x2="920" y2="2548" stroke="#e4e7ec" stroke-width="1"/>
  <text class="axis" x="920" y="176" text-anchor="middle">1000</text>
  <line x1="1025" y1="184" x2="1025" y2="2548" stroke="#e4e7ec" stroke-width="1"/>
  <text class="axis" x="1025" y="176" text-anchor="middle">1250</text>
  <line x1="1130" y1="184" x2="1130" y2="2548" stroke="#e4e7ec" stroke-width="1"/>
  <text class="axis" x="1130" y="176" text-anchor="middle">1500</text>
  <line x1="1235" y1="184" x2="1235" y2="2548" stroke="#e4e7ec" stroke-width="1"/>
  <text class="axis" x="1235" y="176" text-anchor="middle">1750</text>
  <line x1="1340" y1="184" x2="1340" y2="2548" stroke="#e4e7ec" stroke-width="1"/>
  <text class="axis" x="1340" y="176" text-anchor="middle">2000</text>
  <g class="entry published-cuda">
    <title>1. H100: 1980.05 million cells/s</title>
    <text class="label" x="20" y="215">1. H100</text>
    <rect x="500" y="204" width="831" height="13" rx="2" fill="#9aa0a6"/>
    <text class="value" x="1339" y="215">1980.05</text>
  </g>
  <rect x="12" y="223" width="1476" height="25" fill="#f8fafc"/>
  <g class="entry published-cuda">
    <title>2. RTX 5090: 1917.05 million cells/s</title>
    <text class="label" x="20" y="240">2. RTX 5090</text>
    <rect x="500" y="229" width="805" height="13" rx="2" fill="#9aa0a6"/>
    <text class="value" x="1313" y="240">1917.05</text>
  </g>
  <g class="entry published-cuda">
    <title>3. RTX 4090: 1227.98 million cells/s</title>
    <text class="label" x="20" y="265">3. RTX 4090</text>
    <rect x="500" y="254" width="515" height="13" rx="2" fill="#9aa0a6"/>
    <text class="value" x="1023" y="265">1227.98</text>
  </g>
  <rect x="12" y="273" width="1476" height="25" fill="#f8fafc"/>
  <g class="entry published-cuda">
    <title>4. A100: 951.50 million cells/s</title>
    <text class="label" x="20" y="290">4. A100</text>
    <rect x="500" y="279" width="399" height="13" rx="2" fill="#9aa0a6"/>
    <text class="value" x="907" y="290">951.50</text>
  </g>
  <g class="entry published-cuda">
    <title>5. RTX 5080: 926.17 million cells/s</title>
    <text class="label" x="20" y="315">5. RTX 5080</text>
    <rect x="500" y="304" width="388" height="13" rx="2" fill="#9aa0a6"/>
    <text class="value" x="896" y="315">926.17</text>
  </g>
  <rect x="12" y="323" width="1476" height="25" fill="#f8fafc"/>
  <g class="entry published-cuda">
    <title>6. RTX 3090: 835.93 million cells/s</title>
    <text class="label" x="20" y="340">6. RTX 3090</text>
    <rect x="500" y="329" width="351" height="13" rx="2" fill="#9aa0a6"/>
    <text class="value" x="859" y="340">835.93</text>
  </g>
  <g class="entry published-cuda">
    <title>7. RTX 5070 Ti: 775.92 million cells/s</title>
    <text class="label" x="20" y="365">7. RTX 5070 Ti</text>
    <rect x="500" y="354" width="325" height="13" rx="2" fill="#9aa0a6"/>
    <text class="value" x="833" y="365">775.92</text>
  </g>
  <rect x="12" y="373" width="1476" height="25" fill="#f8fafc"/>
  <g class="entry published-cuda">
    <title>8. RTX 3080 (12Gb): 755.77 million cells/s</title>
    <text class="label" x="20" y="390">8. RTX 3080 (12Gb)</text>
    <rect x="500" y="379" width="317" height="13" rx="2" fill="#9aa0a6"/>
    <text class="value" x="825" y="390">755.77</text>
  </g>
  <g class="entry published-cuda">
    <title>9. RTX A6000 (ECC Off): 707.83 million cells/s</title>
    <text class="label" x="20" y="415">9. RTX A6000 (ECC Off)</text>
    <rect x="500" y="404" width="297" height="13" rx="2" fill="#9aa0a6"/>
    <text class="value" x="805" y="415">707.83</text>
  </g>
  <rect x="12" y="423" width="1476" height="25" fill="#f8fafc"/>
  <g class="entry published-cuda">
    <title>10. RTX 3080: 687.87 million cells/s</title>
    <text class="label" x="20" y="440">10. RTX 3080</text>
    <rect x="500" y="429" width="288" height="13" rx="2" fill="#9aa0a6"/>
    <text class="value" x="796" y="440">687.87</text>
  </g>
  <g class="entry published-cuda">
    <title>11. V100-SXM2-32GB: 611.88 million cells/s</title>
    <text class="label" x="20" y="465">11. V100-SXM2-32GB</text>
    <rect x="500" y="454" width="256" height="13" rx="2" fill="#9aa0a6"/>
    <text class="value" x="764" y="465">611.88</text>
  </g>
  <rect x="12" y="473" width="1476" height="25" fill="#f8fafc"/>
  <g class="entry published-cuda">
    <title>12. A40: 574.60 million cells/s</title>
    <text class="label" x="20" y="490">12. A40</text>
    <rect x="500" y="479" width="241" height="13" rx="2" fill="#9aa0a6"/>
    <text class="value" x="749" y="490">574.60</text>
  </g>
  <g class="entry published-cuda">
    <title>13. RTX A6000 (ECC On): 558.15 million cells/s</title>
    <text class="label" x="20" y="515">13. RTX A6000 (ECC On)</text>
    <rect x="500" y="504" width="234" height="13" rx="2" fill="#9aa0a6"/>
    <text class="value" x="742" y="515">558.15</text>
  </g>
  <rect x="12" y="523" width="1476" height="25" fill="#f8fafc"/>
  <g class="entry published-cuda">
    <title>14. RTX 3070 Ti Lite Hash Rate: 547.02 million cells/s</title>
    <text class="label" x="20" y="540">14. RTX 3070 Ti Lite Hash Rate</text>
    <rect x="500" y="529" width="229" height="13" rx="2" fill="#9aa0a6"/>
    <text class="value" x="737" y="540">547.02</text>
  </g>
  <g class="entry published-cuda">
    <title>15. TITAN RTX: 529.57 million cells/s</title>
    <text class="label" x="20" y="565">15. TITAN RTX</text>
    <rect x="500" y="554" width="222" height="13" rx="2" fill="#9aa0a6"/>
    <text class="value" x="730" y="565">529.57</text>
  </g>
  <rect x="12" y="573" width="1476" height="25" fill="#f8fafc"/>
  <g class="entry published-cuda">
    <title>16. RTX 2080 Ti OC: 507.19 million cells/s</title>
    <text class="label" x="20" y="590">16. RTX 2080 Ti OC</text>
    <rect x="500" y="579" width="213" height="13" rx="2" fill="#9aa0a6"/>
    <text class="value" x="721" y="590">507.19</text>
  </g>
  <g class="entry published-cuda">
    <title>17. RTX 4070: 498.75 million cells/s</title>
    <text class="label" x="20" y="615">17. RTX 4070</text>
    <rect x="500" y="604" width="209" height="13" rx="2" fill="#9aa0a6"/>
    <text class="value" x="717" y="615">498.75</text>
  </g>
  <rect x="12" y="623" width="1476" height="25" fill="#f8fafc"/>
  <g class="entry published-cuda">
    <title>18. TITAN V: 468.78 million cells/s</title>
    <text class="label" x="20" y="640">18. TITAN V</text>
    <rect x="500" y="629" width="196" height="13" rx="2" fill="#9aa0a6"/>
    <text class="value" x="704" y="640">468.78</text>
  </g>
  <g class="entry estimated-metal">
    <title>19. Apple M3 Ultra 60-core GPU (estimated): 450.58 million cells/s</title>
    <text class="label" x="20" y="665">19. Apple M3 Ultra 60-core GPU (estimated)</text>
    <rect x="500" y="654" width="189" height="13" rx="2" fill="#e67e22"/>
    <text class="value" x="697" y="665">450.58</text>
  </g>
  <rect x="12" y="673" width="1476" height="25" fill="#f8fafc"/>
  <g class="entry estimated-metal">
    <title>20. Apple M3 Ultra 80-core GPU (estimated): 450.58 million cells/s</title>
    <text class="label" x="20" y="690">20. Apple M3 Ultra 80-core GPU (estimated)</text>
    <rect x="500" y="679" width="189" height="13" rx="2" fill="#e67e22"/>
    <text class="value" x="697" y="690">450.58</text>
  </g>
  <g class="entry published-cuda">
    <title>21. RTX 3060 Ti: 435.34 million cells/s</title>
    <text class="label" x="20" y="715">21. RTX 3060 Ti</text>
    <rect x="500" y="704" width="182" height="13" rx="2" fill="#9aa0a6"/>
    <text class="value" x="690" y="715">435.34</text>
  </g>
  <rect x="12" y="723" width="1476" height="25" fill="#f8fafc"/>
  <g class="entry published-cuda">
    <title>22. RTX 2080 Ti: 428.38 million cells/s</title>
    <text class="label" x="20" y="740">22. RTX 2080 Ti</text>
    <rect x="500" y="729" width="179" height="13" rx="2" fill="#9aa0a6"/>
    <text class="value" x="687" y="740">428.38</text>
  </g>
  <g class="entry published-cuda">
    <title>23. RTX 2080 SUPER: 424.47 million cells/s</title>
    <text class="label" x="20" y="765">23. RTX 2080 SUPER</text>
    <rect x="500" y="754" width="178" height="13" rx="2" fill="#9aa0a6"/>
    <text class="value" x="686" y="765">424.47</text>
  </g>
  <rect x="12" y="773" width="1476" height="25" fill="#f8fafc"/>
  <g class="entry published-cuda">
    <title>24. RTX 3080 (mobile): 400.82 million cells/s</title>
    <text class="label" x="20" y="790">24. RTX 3080 (mobile)</text>
    <rect x="500" y="779" width="168" height="13" rx="2" fill="#9aa0a6"/>
    <text class="value" x="676" y="790">400.82</text>
  </g>
  <g class="entry published-cuda">
    <title>25. Tesla P100 SXM2: 398.80 million cells/s</title>
    <text class="label" x="20" y="815">25. Tesla P100 SXM2</text>
    <rect x="500" y="804" width="167" height="13" rx="2" fill="#9aa0a6"/>
    <text class="value" x="675" y="815">398.80</text>
  </g>
  <rect x="12" y="823" width="1476" height="25" fill="#f8fafc"/>
  <g class="entry published-cuda">
    <title>26. RTX 2080: 379.83 million cells/s</title>
    <text class="label" x="20" y="840">26. RTX 2080</text>
    <rect x="500" y="829" width="159" height="13" rx="2" fill="#9aa0a6"/>
    <text class="value" x="667" y="840">379.83</text>
  </g>
  <g class="entry published-cuda">
    <title>27. RTX 2060 SUPER: 371.52 million cells/s</title>
    <text class="label" x="20" y="865">27. RTX 2060 SUPER</text>
    <rect x="500" y="854" width="156" height="13" rx="2" fill="#9aa0a6"/>
    <text class="value" x="664" y="865">371.52</text>
  </g>
  <rect x="12" y="873" width="1476" height="25" fill="#f8fafc"/>
  <g class="entry published-cuda">
    <title>28. Tesla P100: 362.01 million cells/s</title>
    <text class="label" x="20" y="890">28. Tesla P100</text>
    <rect x="500" y="879" width="152" height="13" rx="2" fill="#9aa0a6"/>
    <text class="value" x="660" y="890">362.01</text>
  </g>
  <g class="entry estimated-metal">
    <title>29. Apple M2 Ultra 76-core GPU (estimated): 343.30 million cells/s</title>
    <text class="label" x="20" y="915">29. Apple M2 Ultra 76-core GPU (estimated)</text>
    <rect x="500" y="904" width="144" height="13" rx="2" fill="#e67e22"/>
    <text class="value" x="652" y="915">343.30</text>
  </g>
  <rect x="12" y="923" width="1476" height="25" fill="#f8fafc"/>
  <g class="entry published-cuda">
    <title>30. GTX TITAN Xp: 341.38 million cells/s</title>
    <text class="label" x="20" y="940">30. GTX TITAN Xp</text>
    <rect x="500" y="929" width="143" height="13" rx="2" fill="#9aa0a6"/>
    <text class="value" x="651" y="940">341.38</text>
  </g>
  <g class="entry published-cuda">
    <title>31. RTX A4000 (ECC On): 323.03 million cells/s</title>
    <text class="label" x="20" y="965">31. RTX A4000 (ECC On)</text>
    <rect x="500" y="954" width="135" height="13" rx="2" fill="#9aa0a6"/>
    <text class="value" x="643" y="965">323.03</text>
  </g>
  <rect x="12" y="973" width="1476" height="25" fill="#f8fafc"/>
  <g class="entry estimated-metal">
    <title>32. Apple M5 Max 40-core GPU (estimated): 301.05 million cells/s</title>
    <text class="label" x="20" y="990">32. Apple M5 Max 40-core GPU (estimated)</text>
    <rect x="500" y="979" width="126" height="13" rx="2" fill="#e67e22"/>
    <text class="value" x="634" y="990">301.05</text>
  </g>
  <g class="entry published-cuda">
    <title>33. RTX 4060 Ti: 299.89 million cells/s</title>
    <text class="label" x="20" y="1015">33. RTX 4060 Ti</text>
    <rect x="500" y="1004" width="125" height="13" rx="2" fill="#9aa0a6"/>
    <text class="value" x="633" y="1015">299.89</text>
  </g>
  <rect x="12" y="1023" width="1476" height="25" fill="#f8fafc"/>
  <g class="entry published-cuda">
    <title>34. RTX 2070: 297.77 million cells/s</title>
    <text class="label" x="20" y="1040">34. RTX 2070</text>
    <rect x="500" y="1029" width="125" height="13" rx="2" fill="#9aa0a6"/>
    <text class="value" x="633" y="1040">297.77</text>
  </g>
  <g class="entry published-cuda">
    <title>35. RTX 2060: 284.68 million cells/s</title>
    <text class="label" x="20" y="1065">35. RTX 2060</text>
    <rect x="500" y="1054" width="119" height="13" rx="2" fill="#9aa0a6"/>
    <text class="value" x="627" y="1065">284.68</text>
  </g>
  <rect x="12" y="1073" width="1476" height="25" fill="#f8fafc"/>
  <g class="entry published-cuda">
    <title>36. GTX 1080 Ti: 275.16 million cells/s</title>
    <text class="label" x="20" y="1090">36. GTX 1080 Ti</text>
    <rect x="500" y="1079" width="115" height="13" rx="2" fill="#9aa0a6"/>
    <text class="value" x="623" y="1090">275.16</text>
  </g>
  <g class="entry published-cuda">
    <title>37. GTX TITAN X (Pascal): 274.78 million cells/s</title>
    <text class="label" x="20" y="1115">37. GTX TITAN X (Pascal)</text>
    <rect x="500" y="1104" width="115" height="13" rx="2" fill="#9aa0a6"/>
    <text class="value" x="623" y="1115">274.78</text>
  </g>
  <rect x="12" y="1123" width="1476" height="25" fill="#f8fafc"/>
  <g class="entry estimated-metal">
    <title>38. Apple M2 Ultra 60-core GPU (estimated): 271.02 million cells/s</title>
    <text class="label" x="20" y="1140">38. Apple M2 Ultra 60-core GPU (estimated)</text>
    <rect x="500" y="1129" width="113" height="13" rx="2" fill="#e67e22"/>
    <text class="value" x="621" y="1140">271.02</text>
  </g>
  <g class="entry estimated-metal">
    <title>39. Apple M1 Ultra 64-core GPU (estimated): 264.07 million cells/s</title>
    <text class="label" x="20" y="1165">39. Apple M1 Ultra 64-core GPU (estimated)</text>
    <rect x="500" y="1154" width="110" height="13" rx="2" fill="#e67e22"/>
    <text class="value" x="618" y="1165">264.07</text>
  </g>
  <rect x="12" y="1173" width="1476" height="25" fill="#f8fafc"/>
  <g class="entry estimated-metal">
    <title>40. Apple M4 Max 40-core GPU (estimated): 250.87 million cells/s</title>
    <text class="label" x="20" y="1190">40. Apple M4 Max 40-core GPU (estimated)</text>
    <rect x="500" y="1179" width="105" height="13" rx="2" fill="#e67e22"/>
    <text class="value" x="613" y="1190">250.87</text>
  </g>
  <g class="entry published-cuda">
    <title>41. GTX 1660 Ti: 247.45 million cells/s</title>
    <text class="label" x="20" y="1215">41. GTX 1660 Ti</text>
    <rect x="500" y="1204" width="103" height="13" rx="2" fill="#9aa0a6"/>
    <text class="value" x="611" y="1215">247.45</text>
  </g>
  <rect x="12" y="1223" width="1476" height="25" fill="#f8fafc"/>
  <g class="entry estimated-metal">
    <title>42. Apple M5 Max 32-core GPU (estimated): 240.84 million cells/s</title>
    <text class="label" x="20" y="1240">42. Apple M5 Max 32-core GPU (estimated)</text>
    <rect x="500" y="1229" width="101" height="13" rx="2" fill="#e67e22"/>
    <text class="value" x="609" y="1240">240.84</text>
  </g>
  <g class="entry published-cuda">
    <title>43. Tesla P40: 239.45 million cells/s</title>
    <text class="label" x="20" y="1265">43. Tesla P40</text>
    <rect x="500" y="1254" width="100" height="13" rx="2" fill="#9aa0a6"/>
    <text class="value" x="608" y="1265">239.45</text>
  </g>
  <rect x="12" y="1273" width="1476" height="25" fill="#f8fafc"/>
  <g class="entry published-cuda">
    <title>44. RTX 3050 Ti: 206.35 million cells/s</title>
    <text class="label" x="20" y="1290">44. RTX 3050 Ti</text>
    <rect x="500" y="1279" width="86" height="13" rx="2" fill="#9aa0a6"/>
    <text class="value" x="594" y="1290">206.35</text>
  </g>
  <g class="entry published-cuda">
    <title>45. Quadro P5000: 204.46 million cells/s</title>
    <text class="label" x="20" y="1315">45. Quadro P5000</text>
    <rect x="500" y="1304" width="85" height="13" rx="2" fill="#9aa0a6"/>
    <text class="value" x="593" y="1315">204.46</text>
  </g>
  <rect x="12" y="1323" width="1476" height="25" fill="#f8fafc"/>
  <g class="entry published-cuda">
    <title>46. RTX 2000 Ada: 204.09 million cells/s</title>
    <text class="label" x="20" y="1340">46. RTX 2000 Ada</text>
    <rect x="500" y="1329" width="85" height="13" rx="2" fill="#9aa0a6"/>
    <text class="value" x="593" y="1340">204.09</text>
  </g>
  <g class="entry estimated-metal">
    <title>47. Apple M4 Max 32-core GPU (estimated): 200.70 million cells/s</title>
    <text class="label" x="20" y="1365">47. Apple M4 Max 32-core GPU (estimated)</text>
    <rect x="500" y="1354" width="84" height="13" rx="2" fill="#e67e22"/>
    <text class="value" x="592" y="1365">200.70</text>
  </g>
  <rect x="12" y="1373" width="1476" height="25" fill="#f8fafc"/>
  <g class="entry published-cuda">
    <title>48. GTX 980 Ti: 199.62 million cells/s</title>
    <text class="label" x="20" y="1390">48. GTX 980 Ti</text>
    <rect x="500" y="1379" width="83" height="13" rx="2" fill="#9aa0a6"/>
    <text class="value" x="591" y="1390">199.62</text>
  </g>
  <g class="entry estimated-metal">
    <title>49. Apple M1 Ultra 48-core GPU (estimated): 198.06 million cells/s</title>
    <text class="label" x="20" y="1415">49. Apple M1 Ultra 48-core GPU (estimated)</text>
    <rect x="500" y="1404" width="83" height="13" rx="2" fill="#e67e22"/>
    <text class="value" x="591" y="1415">198.06</text>
  </g>
  <rect x="12" y="1423" width="1476" height="25" fill="#f8fafc"/>
  <g class="entry estimated-metal">
    <title>50. Apple M3 Max 40-core GPU (estimated): 198.06 million cells/s</title>
    <text class="label" x="20" y="1440">50. Apple M3 Max 40-core GPU (estimated)</text>
    <rect x="500" y="1429" width="83" height="13" rx="2" fill="#e67e22"/>
    <text class="value" x="591" y="1440">198.06</text>
  </g>
  <g class="entry published-cuda">
    <title>51. Tesla M40: 197.48 million cells/s</title>
    <text class="label" x="20" y="1465">51. Tesla M40</text>
    <rect x="500" y="1454" width="82" height="13" rx="2" fill="#9aa0a6"/>
    <text class="value" x="590" y="1465">197.48</text>
  </g>
  <rect x="12" y="1473" width="1476" height="25" fill="#f8fafc"/>
  <g class="entry published-cuda">
    <title>52. Tesla T4: 190.37 million cells/s</title>
    <text class="label" x="20" y="1490">52. Tesla T4</text>
    <rect x="500" y="1479" width="79" height="13" rx="2" fill="#9aa0a6"/>
    <text class="value" x="587" y="1490">190.37</text>
  </g>
  <g class="entry published-cuda">
    <title>53. GTX 1080: 189.68 million cells/s</title>
    <text class="label" x="20" y="1515">53. GTX 1080</text>
    <rect x="500" y="1504" width="79" height="13" rx="2" fill="#9aa0a6"/>
    <text class="value" x="587" y="1515">189.68</text>
  </g>
  <rect x="12" y="1523" width="1476" height="25" fill="#f8fafc"/>
  <g class="entry published-cuda">
    <title>54. RTX 4050 (mobile): 175.97 million cells/s</title>
    <text class="label" x="20" y="1540">54. RTX 4050 (mobile)</text>
    <rect x="500" y="1529" width="73" height="13" rx="2" fill="#9aa0a6"/>
    <text class="value" x="581" y="1540">175.97</text>
  </g>
  <g class="entry estimated-metal">
    <title>55. Apple M2 Max 38-core GPU (estimated): 171.65 million cells/s</title>
    <text class="label" x="20" y="1565">55. Apple M2 Max 38-core GPU (estimated)</text>
    <rect x="500" y="1554" width="72" height="13" rx="2" fill="#e67e22"/>
    <text class="value" x="580" y="1565">171.65</text>
  </g>
  <rect x="12" y="1573" width="1476" height="25" fill="#f8fafc"/>
  <g class="entry published-cuda">
    <title>56. GTX 1070: 170.30 million cells/s</title>
    <text class="label" x="20" y="1590">56. GTX 1070</text>
    <rect x="500" y="1579" width="71" height="13" rx="2" fill="#9aa0a6"/>
    <text class="value" x="579" y="1590">170.30</text>
  </g>
  <g class="entry published-cuda">
    <title>57. GTX 1660: 164.11 million cells/s</title>
    <text class="label" x="20" y="1615">57. GTX 1660</text>
    <rect x="500" y="1604" width="68" height="13" rx="2" fill="#9aa0a6"/>
    <text class="value" x="576" y="1615">164.11</text>
  </g>
  <rect x="12" y="1623" width="1476" height="25" fill="#f8fafc"/>
  <g class="entry estimated-metal">
    <title>58. Apple M5 Pro 20-core GPU (estimated): 158.44 million cells/s</title>
    <text class="label" x="20" y="1640">58. Apple M5 Pro 20-core GPU (estimated)</text>
    <rect x="500" y="1629" width="66" height="13" rx="2" fill="#e67e22"/>
    <text class="value" x="574" y="1640">158.44</text>
  </g>
  <g class="entry estimated-metal">
    <title>59. Apple M3 Max 30-core GPU (estimated): 148.54 million cells/s</title>
    <text class="label" x="20" y="1665">59. Apple M3 Max 30-core GPU (estimated)</text>
    <rect x="500" y="1654" width="62" height="13" rx="2" fill="#e67e22"/>
    <text class="value" x="570" y="1665">148.54</text>
  </g>
  <rect x="12" y="1673" width="1476" height="25" fill="#f8fafc"/>
  <g class="entry published-cuda">
    <title>60. Quadro M5000: 142.12 million cells/s</title>
    <text class="label" x="20" y="1690">60. Quadro M5000</text>
    <rect x="500" y="1679" width="59" height="13" rx="2" fill="#9aa0a6"/>
    <text class="value" x="567" y="1690">142.12</text>
  </g>
  <g class="entry estimated-metal">
    <title>61. Apple M2 Max 30-core GPU (estimated): 135.51 million cells/s</title>
    <text class="label" x="20" y="1715">61. Apple M2 Max 30-core GPU (estimated)</text>
    <rect x="500" y="1704" width="56" height="13" rx="2" fill="#e67e22"/>
    <text class="value" x="564" y="1715">135.51</text>
  </g>
  <rect x="12" y="1723" width="1476" height="25" fill="#f8fafc"/>
  <g class="entry published-cuda">
    <title>62. GTX 980: 132.22 million cells/s</title>
    <text class="label" x="20" y="1740">62. GTX 980</text>
    <rect x="500" y="1729" width="55" height="13" rx="2" fill="#9aa0a6"/>
    <text class="value" x="563" y="1740">132.22</text>
  </g>
  <g class="entry estimated-metal">
    <title>63. Apple M1 Max 32-core GPU (estimated): 132.04 million cells/s</title>
    <text class="label" x="20" y="1765">63. Apple M1 Max 32-core GPU (estimated)</text>
    <rect x="500" y="1754" width="55" height="13" rx="2" fill="#e67e22"/>
    <text class="value" x="563" y="1765">132.04</text>
  </g>
  <rect x="12" y="1773" width="1476" height="25" fill="#f8fafc"/>
  <g class="entry estimated-metal">
    <title>64. Apple M4 Pro 20-core GPU (estimated): 132.04 million cells/s</title>
    <text class="label" x="20" y="1790">64. Apple M4 Pro 20-core GPU (estimated)</text>
    <rect x="500" y="1779" width="55" height="13" rx="2" fill="#e67e22"/>
    <text class="value" x="563" y="1790">132.04</text>
  </g>
  <g class="entry published-cuda">
    <title>65. GTX 1060 (mobile): 128.27 million cells/s</title>
    <text class="label" x="20" y="1815">65. GTX 1060 (mobile)</text>
    <rect x="500" y="1804" width="53" height="13" rx="2" fill="#9aa0a6"/>
    <text class="value" x="561" y="1815">128.27</text>
  </g>
  <rect x="12" y="1823" width="1476" height="25" fill="#f8fafc"/>
  <g class="entry published-cuda">
    <title>66. GTX 1060: 128.02 million cells/s</title>
    <text class="label" x="20" y="1840">66. GTX 1060</text>
    <rect x="500" y="1829" width="53" height="13" rx="2" fill="#9aa0a6"/>
    <text class="value" x="561" y="1840">128.02</text>
  </g>
  <g class="entry estimated-metal">
    <title>67. Apple M5 Pro 16-core GPU (estimated): 126.76 million cells/s</title>
    <text class="label" x="20" y="1865">67. Apple M5 Pro 16-core GPU (estimated)</text>
    <rect x="500" y="1854" width="53" height="13" rx="2" fill="#e67e22"/>
    <text class="value" x="561" y="1865">126.76</text>
  </g>
  <rect x="12" y="1873" width="1476" height="25" fill="#f8fafc"/>
  <g class="entry published-cuda">
    <title>68. GTX 970: 120.59 million cells/s</title>
    <text class="label" x="20" y="1890">68. GTX 970</text>
    <rect x="500" y="1879" width="50" height="13" rx="2" fill="#9aa0a6"/>
    <text class="value" x="558" y="1890">120.59</text>
  </g>
  <g class="entry estimated-metal">
    <title>69. Apple M4 Pro 16-core GPU (estimated): 105.63 million cells/s</title>
    <text class="label" x="20" y="1915">69. Apple M4 Pro 16-core GPU (estimated)</text>
    <rect x="500" y="1904" width="44" height="13" rx="2" fill="#e67e22"/>
    <text class="value" x="552" y="1915">105.63</text>
  </g>
  <rect x="12" y="1923" width="1476" height="25" fill="#f8fafc"/>
  <g class="entry estimated-metal">
    <title>70. Apple M1 Max 24-core GPU (estimated): 99.03 million cells/s</title>
    <text class="label" x="20" y="1940">70. Apple M1 Max 24-core GPU (estimated)</text>
    <rect x="500" y="1929" width="41" height="13" rx="2" fill="#e67e22"/>
    <text class="value" x="549" y="1940">99.03</text>
  </g>
  <g class="entry published-cuda">
    <title>71. GTX 1650 (mobile): 97.54 million cells/s</title>
    <text class="label" x="20" y="1965">71. GTX 1650 (mobile)</text>
    <rect x="500" y="1954" width="40" height="13" rx="2" fill="#9aa0a6"/>
    <text class="value" x="548" y="1965">97.54</text>
  </g>
  <rect x="12" y="1973" width="1476" height="25" fill="#f8fafc"/>
  <g class="entry estimated-metal">
    <title>72. Apple M2 Pro 19-core GPU (estimated): 85.82 million cells/s</title>
    <text class="label" x="20" y="1990">72. Apple M2 Pro 19-core GPU (estimated)</text>
    <rect x="500" y="1979" width="36" height="13" rx="2" fill="#e67e22"/>
    <text class="value" x="544" y="1990">85.82</text>
  </g>
  <g class="entry published-cuda">
    <title>73. RTX 2050 (mobile): 84.90 million cells/s</title>
    <text class="label" x="20" y="2015">73. RTX 2050 (mobile)</text>
    <rect x="500" y="2004" width="35" height="13" rx="2" fill="#9aa0a6"/>
    <text class="value" x="543" y="2015">84.90</text>
  </g>
  <rect x="12" y="2023" width="1476" height="25" fill="#f8fafc"/>
  <g class="entry estimated-metal">
    <title>74. Apple M5 10-core GPU (estimated): 84.17 million cells/s</title>
    <text class="label" x="20" y="2040">74. Apple M5 10-core GPU (estimated)</text>
    <rect x="500" y="2029" width="35" height="13" rx="2" fill="#e67e22"/>
    <text class="value" x="543" y="2040">84.17</text>
  </g>
  <g class="entry estimated-metal">
    <title>75. Apple M3 Pro 18-core GPU (estimated): 82.52 million cells/s</title>
    <text class="label" x="20" y="2065">75. Apple M3 Pro 18-core GPU (estimated)</text>
    <rect x="500" y="2054" width="34" height="13" rx="2" fill="#e67e22"/>
    <text class="value" x="542" y="2065">82.52</text>
  </g>
  <rect x="12" y="2073" width="1476" height="25" fill="#f8fafc"/>
  <g class="entry published-cuda">
    <title>76. GTX 1050Ti (mobile): 81.91 million cells/s</title>
    <text class="label" x="20" y="2090">76. GTX 1050Ti (mobile)</text>
    <rect x="500" y="2079" width="34" height="13" rx="2" fill="#9aa0a6"/>
    <text class="value" x="542" y="2090">81.91</text>
  </g>
  <g class="entry published-cuda">
    <title>77. GTX 1050 (mobile): 72.61 million cells/s</title>
    <text class="label" x="20" y="2115">77. GTX 1050 (mobile)</text>
    <rect x="500" y="2104" width="30" height="13" rx="2" fill="#9aa0a6"/>
    <text class="value" x="538" y="2115">72.61</text>
  </g>
  <rect x="12" y="2123" width="1476" height="25" fill="#f8fafc"/>
  <g class="entry estimated-metal">
    <title>78. Apple M2 Pro 16-core GPU (estimated): 72.27 million cells/s</title>
    <text class="label" x="20" y="2140">78. Apple M2 Pro 16-core GPU (estimated)</text>
    <rect x="500" y="2129" width="30" height="13" rx="2" fill="#e67e22"/>
    <text class="value" x="538" y="2140">72.27</text>
  </g>
  <g class="entry estimated-metal">
    <title>79. Apple M3 Pro 14-core GPU (estimated): 71.89 million cells/s</title>
    <text class="label" x="20" y="2165">79. Apple M3 Pro 14-core GPU (estimated)</text>
    <rect x="500" y="2154" width="30" height="13" rx="2" fill="#e67e22"/>
    <text class="value" x="538" y="2165">71.89</text>
  </g>
  <rect x="12" y="2173" width="1476" height="25" fill="#f8fafc"/>
  <g class="entry estimated-metal">
    <title>80. Apple M5 8-core GPU (estimated): 68.66 million cells/s</title>
    <text class="label" x="20" y="2190">80. Apple M5 8-core GPU (estimated)</text>
    <rect x="500" y="2179" width="28" height="13" rx="2" fill="#e67e22"/>
    <text class="value" x="536" y="2190">68.66</text>
  </g>
  <g class="entry measured-metal">
    <title>81. Apple M4 10-core GPU — MacBook Air (measured): 66.02 million cells/s</title>
    <text class="label" x="20" y="2215">81. Apple M4 10-core GPU — MacBook Air (measured)</text>
    <rect x="500" y="2204" width="27" height="13" rx="2" fill="#1473e6"/>
    <text class="value" x="535" y="2215">66.02</text>
  </g>
  <rect x="12" y="2223" width="1476" height="25" fill="#f8fafc"/>
  <g class="entry estimated-metal">
    <title>82. Apple M1 Pro 16-core GPU (estimated): 66.02 million cells/s</title>
    <text class="label" x="20" y="2240">82. Apple M1 Pro 16-core GPU (estimated)</text>
    <rect x="500" y="2229" width="27" height="13" rx="2" fill="#e67e22"/>
    <text class="value" x="535" y="2240">66.02</text>
  </g>
  <g class="entry estimated-metal">
    <title>83. Apple M1 Pro 14-core GPU (estimated): 57.77 million cells/s</title>
    <text class="label" x="20" y="2265">83. Apple M1 Pro 14-core GPU (estimated)</text>
    <rect x="500" y="2254" width="24" height="13" rx="2" fill="#e67e22"/>
    <text class="value" x="532" y="2265">57.77</text>
  </g>
  <rect x="12" y="2273" width="1476" height="25" fill="#f8fafc"/>
  <g class="entry published-cuda">
    <title>84. GTX 860M: 55.28 million cells/s</title>
    <text class="label" x="20" y="2290">84. GTX 860M</text>
    <rect x="500" y="2279" width="23" height="13" rx="2" fill="#9aa0a6"/>
    <text class="value" x="531" y="2290">55.28</text>
  </g>
  <g class="entry estimated-metal">
    <title>85. Apple M3 10-core GPU (estimated): 54.47 million cells/s</title>
    <text class="label" x="20" y="2315">85. Apple M3 10-core GPU (estimated)</text>
    <rect x="500" y="2304" width="22" height="13" rx="2" fill="#e67e22"/>
    <text class="value" x="530" y="2315">54.47</text>
  </g>
  <rect x="12" y="2323" width="1476" height="25" fill="#f8fafc"/>
  <g class="entry estimated-metal">
    <title>86. Apple M4 8-core GPU (estimated): 52.81 million cells/s</title>
    <text class="label" x="20" y="2340">86. Apple M4 8-core GPU (estimated)</text>
    <rect x="500" y="2329" width="22" height="13" rx="2" fill="#e67e22"/>
    <text class="value" x="530" y="2340">52.81</text>
  </g>
  <g class="entry estimated-metal">
    <title>87. Apple M2 10-core GPU (estimated): 44.56 million cells/s</title>
    <text class="label" x="20" y="2365">87. Apple M2 10-core GPU (estimated)</text>
    <rect x="500" y="2354" width="18" height="13" rx="2" fill="#e67e22"/>
    <text class="value" x="526" y="2365">44.56</text>
  </g>
  <rect x="12" y="2373" width="1476" height="25" fill="#f8fafc"/>
  <g class="entry estimated-metal">
    <title>88. Apple M3 8-core GPU (estimated): 43.57 million cells/s</title>
    <text class="label" x="20" y="2390">88. Apple M3 8-core GPU (estimated)</text>
    <rect x="500" y="2379" width="18" height="13" rx="2" fill="#e67e22"/>
    <text class="value" x="526" y="2390">43.57</text>
  </g>
  <g class="entry estimated-metal">
    <title>89. Apple M2 8-core GPU (estimated): 35.65 million cells/s</title>
    <text class="label" x="20" y="2415">89. Apple M2 8-core GPU (estimated)</text>
    <rect x="500" y="2404" width="14" height="13" rx="2" fill="#e67e22"/>
    <text class="value" x="522" y="2415">35.65</text>
  </g>
  <rect x="12" y="2423" width="1476" height="25" fill="#f8fafc"/>
  <g class="entry published-cuda">
    <title>90. MX150: 34.97 million cells/s</title>
    <text class="label" x="20" y="2440">90. MX150</text>
    <rect x="500" y="2429" width="14" height="13" rx="2" fill="#9aa0a6"/>
    <text class="value" x="522" y="2440">34.97</text>
  </g>
  <g class="entry published-cuda">
    <title>91. MX250: 34.87 million cells/s</title>
    <text class="label" x="20" y="2465">91. MX250</text>
    <rect x="500" y="2454" width="14" height="13" rx="2" fill="#9aa0a6"/>
    <text class="value" x="522" y="2465">34.87</text>
  </g>
  <rect x="12" y="2473" width="1476" height="25" fill="#f8fafc"/>
  <g class="entry estimated-metal">
    <title>92. Apple M1 8-core GPU (estimated): 33.01 million cells/s</title>
    <text class="label" x="20" y="2490">92. Apple M1 8-core GPU (estimated)</text>
    <rect x="500" y="2479" width="13" height="13" rx="2" fill="#e67e22"/>
    <text class="value" x="521" y="2490">33.01</text>
  </g>
  <g class="entry estimated-metal">
    <title>93. Apple M1 7-core GPU (estimated): 28.88 million cells/s</title>
    <text class="label" x="20" y="2515">93. Apple M1 7-core GPU (estimated)</text>
    <rect x="500" y="2504" width="12" height="13" rx="2" fill="#e67e22"/>
    <text class="value" x="520" y="2515">28.88</text>
  </g>
  <rect x="12" y="2523" width="1476" height="25" fill="#f8fafc"/>
  <g class="entry published-cuda">
    <title>94. 940MX: 26.58 million cells/s</title>
    <text class="label" x="20" y="2540">94. 940MX</text>
    <rect x="500" y="2529" width="11" height="13" rx="2" fill="#9aa0a6"/>
    <text class="value" x="519" y="2540">26.58</text>
  </g>
  <line x1="12" y1="2548" x2="1488" y2="2548" stroke="#d0d5dd"/>
  <text class="note" x="20" y="2586">Source: mumax³ website gpus.svg snapshot (58 CUDA entries) · Apple values and reproducible inputs: benchmark-results/</text>
  <text class="note" x="20" y="2606">Ranking in this chart is a comparison aid. Only gray and blue bars are measured; orange bars must be replaced by submitted measurements.</text>
</svg>
