<svg xmlns="http://www.w3.org/2000/svg" width="1034" height="726" viewBox="0 0 1034 726">
<defs><pattern id="hatch" width="5" height="5" patternTransform="rotate(45)" patternUnits="userSpaceOnUse"><line x1="0" y1="0" x2="0" y2="5" stroke="#ffffff" stroke-width="2.1"/></pattern></defs>
<rect width="1034" height="726" fill="#ffffff"/>
<text x="78" y="30" font-family="DejaVu Sans, Helvetica, Arial, sans-serif" font-size="15" font-weight="600" fill="#202124">MuMax3 GPU benchmark, 4.19M cells (2048x2048)</text>
<text x="78" y="48" font-family="DejaVu Sans, Helvetica, Arial, sans-serif" font-size="11" fill="#5f6368">All GPU bars are measured results from bench/gpus.txt. Apple M4 uses the Metal backend; the other GPU bars use CUDA. OOMMF is the CPU reference used by the</text>
<text x="78" y="63" font-family="DejaVu Sans, Helvetica, Arial, sans-serif" font-size="11" fill="#5f6368">original gnuplot chart.</text>
<line x1="78" y1="508.0" x2="1008" y2="508.0" stroke="#e4e6e9" stroke-width="1"/>
<text x="70" y="512.0" font-family="DejaVu Sans, Helvetica, Arial, sans-serif" font-size="10" fill="#5f6368" text-anchor="end">0</text>
<line x1="78" y1="403.5" x2="1008" y2="403.5" stroke="#e4e6e9" stroke-width="1"/>
<text x="70" y="407.5" font-family="DejaVu Sans, Helvetica, Arial, sans-serif" font-size="10" fill="#5f6368" text-anchor="end">500</text>
<line x1="78" y1="299.0" x2="1008" y2="299.0" stroke="#e4e6e9" stroke-width="1"/>
<text x="70" y="303.0" font-family="DejaVu Sans, Helvetica, Arial, sans-serif" font-size="10" fill="#5f6368" text-anchor="end">1000</text>
<line x1="78" y1="194.5" x2="1008" y2="194.5" stroke="#e4e6e9" stroke-width="1"/>
<text x="70" y="198.5" font-family="DejaVu Sans, Helvetica, Arial, sans-serif" font-size="10" fill="#5f6368" text-anchor="end">1500</text>
<line x1="78" y1="90.0" x2="1008" y2="90.0" stroke="#e4e6e9" stroke-width="1"/>
<text x="70" y="94.0" font-family="DejaVu Sans, Helvetica, Arial, sans-serif" font-size="10" fill="#5f6368" text-anchor="end">2000</text>
<line x1="78" y1="90" x2="78" y2="508" stroke="#5f6368" stroke-width="1"/>
<line x1="78" y1="508" x2="1008" y2="508" stroke="#5f6368" stroke-width="1"/>
<text x="18" y="299.0" font-family="DejaVu Sans, Helvetica, Arial, sans-serif" font-size="11" fill="#202124" text-anchor="middle" transform="rotate(-90 18 299.0)">throughput (M cell-evals/s)</text>
<rect x="80.8" y="507.7" width="9.3" height="0.3" fill="#8d9299"/>
<text x="85.5" y="515.0" font-family="DejaVu Sans, Helvetica, Arial, sans-serif" font-size="10" fill="#5f6368" text-anchor="end" transform="rotate(-90 85.5 515.0)">OOMMF (CPU)</text>
<rect x="95.8" y="502.4" width="9.3" height="5.6" fill="#8d9299"/>
<text x="100.5" y="515.0" font-family="DejaVu Sans, Helvetica, Arial, sans-serif" font-size="10" fill="#5f6368" text-anchor="end" transform="rotate(-90 100.5 515.0)">940MX</text>
<rect x="110.8" y="500.7" width="9.3" height="7.3" fill="#8d9299"/>
<text x="115.5" y="515.0" font-family="DejaVu Sans, Helvetica, Arial, sans-serif" font-size="10" fill="#5f6368" text-anchor="end" transform="rotate(-90 115.5 515.0)">MX250</text>
<rect x="125.8" y="500.7" width="9.3" height="7.3" fill="#8d9299"/>
<text x="130.5" y="515.0" font-family="DejaVu Sans, Helvetica, Arial, sans-serif" font-size="10" fill="#5f6368" text-anchor="end" transform="rotate(-90 130.5 515.0)">MX150</text>
<rect x="140.8" y="496.4" width="9.3" height="11.6" fill="#8d9299"/>
<text x="145.5" y="515.0" font-family="DejaVu Sans, Helvetica, Arial, sans-serif" font-size="10" fill="#5f6368" text-anchor="end" transform="rotate(-90 145.5 515.0)">GTX 860M</text>
<rect x="155.8" y="492.8" width="9.3" height="15.2" fill="#8d9299"/>
<text x="160.5" y="515.0" font-family="DejaVu Sans, Helvetica, Arial, sans-serif" font-size="10" fill="#5f6368" text-anchor="end" transform="rotate(-90 160.5 515.0)">GTX 1050 (mobile)</text>
<rect x="170.8" y="492.1" width="9.3" height="15.9" fill="#8d9299"/>
<text x="175.5" y="515.0" font-family="DejaVu Sans, Helvetica, Arial, sans-serif" font-size="10" fill="#5f6368" text-anchor="end" transform="rotate(-90 175.5 515.0)">RTX A400</text>
<rect x="185.8" y="490.9" width="9.3" height="17.1" fill="#8d9299"/>
<text x="190.5" y="515.0" font-family="DejaVu Sans, Helvetica, Arial, sans-serif" font-size="10" fill="#5f6368" text-anchor="end" transform="rotate(-90 190.5 515.0)">GTX 1050Ti (mobile)</text>
<rect x="200.8" y="490.3" width="9.3" height="17.7" fill="#8d9299"/>
<text x="205.5" y="515.0" font-family="DejaVu Sans, Helvetica, Arial, sans-serif" font-size="10" fill="#5f6368" text-anchor="end" transform="rotate(-90 205.5 515.0)">RTX 2050 (mobile)</text>
<rect x="215.8" y="487.6" width="9.3" height="20.4" fill="#8d9299"/>
<text x="220.5" y="515.0" font-family="DejaVu Sans, Helvetica, Arial, sans-serif" font-size="10" fill="#5f6368" text-anchor="end" transform="rotate(-90 220.5 515.0)">GTX 1650 (mobile)</text>
<rect x="230.8" y="486.1" width="9.3" height="21.9" fill="#0b4f9e"/>
<text x="235.5" y="515.0" font-family="DejaVu Sans, Helvetica, Arial, sans-serif" font-size="10" fill="#202124" font-weight="600" text-anchor="end" transform="rotate(-90 235.5 515.0)">Apple M4 (Metal)</text>
<rect x="245.8" y="482.8" width="9.3" height="25.2" fill="#8d9299"/>
<text x="250.5" y="515.0" font-family="DejaVu Sans, Helvetica, Arial, sans-serif" font-size="10" fill="#5f6368" text-anchor="end" transform="rotate(-90 250.5 515.0)">GTX 970</text>
<rect x="260.9" y="481.2" width="9.3" height="26.8" fill="#8d9299"/>
<text x="265.5" y="515.0" font-family="DejaVu Sans, Helvetica, Arial, sans-serif" font-size="10" fill="#5f6368" text-anchor="end" transform="rotate(-90 265.5 515.0)">GTX 1060</text>
<rect x="275.9" y="481.2" width="9.3" height="26.8" fill="#8d9299"/>
<text x="280.5" y="515.0" font-family="DejaVu Sans, Helvetica, Arial, sans-serif" font-size="10" fill="#5f6368" text-anchor="end" transform="rotate(-90 280.5 515.0)">GTX 1060 (mobile)</text>
<rect x="290.9" y="480.4" width="9.3" height="27.6" fill="#8d9299"/>
<text x="295.5" y="515.0" font-family="DejaVu Sans, Helvetica, Arial, sans-serif" font-size="10" fill="#5f6368" text-anchor="end" transform="rotate(-90 295.5 515.0)">GTX 980</text>
<rect x="305.9" y="478.3" width="9.3" height="29.7" fill="#8d9299"/>
<text x="310.5" y="515.0" font-family="DejaVu Sans, Helvetica, Arial, sans-serif" font-size="10" fill="#5f6368" text-anchor="end" transform="rotate(-90 310.5 515.0)">Quadro M5000</text>
<rect x="320.9" y="473.7" width="9.3" height="34.3" fill="#8d9299"/>
<text x="325.5" y="515.0" font-family="DejaVu Sans, Helvetica, Arial, sans-serif" font-size="10" fill="#5f6368" text-anchor="end" transform="rotate(-90 325.5 515.0)">GTX 1660</text>
<rect x="335.9" y="472.4" width="9.3" height="35.6" fill="#8d9299"/>
<text x="340.5" y="515.0" font-family="DejaVu Sans, Helvetica, Arial, sans-serif" font-size="10" fill="#5f6368" text-anchor="end" transform="rotate(-90 340.5 515.0)">GTX 1070</text>
<rect x="350.9" y="471.2" width="9.3" height="36.8" fill="#8d9299"/>
<text x="355.5" y="515.0" font-family="DejaVu Sans, Helvetica, Arial, sans-serif" font-size="10" fill="#5f6368" text-anchor="end" transform="rotate(-90 355.5 515.0)">RTX 4050 (mobile)</text>
<rect x="365.9" y="468.4" width="9.3" height="39.6" fill="#8d9299"/>
<text x="370.5" y="515.0" font-family="DejaVu Sans, Helvetica, Arial, sans-serif" font-size="10" fill="#5f6368" text-anchor="end" transform="rotate(-90 370.5 515.0)">GTX 1080</text>
<rect x="380.9" y="468.2" width="9.3" height="39.8" fill="#8d9299"/>
<text x="385.5" y="515.0" font-family="DejaVu Sans, Helvetica, Arial, sans-serif" font-size="10" fill="#5f6368" text-anchor="end" transform="rotate(-90 385.5 515.0)">Tesla T4</text>
<rect x="395.9" y="466.7" width="9.3" height="41.3" fill="#8d9299"/>
<text x="400.5" y="515.0" font-family="DejaVu Sans, Helvetica, Arial, sans-serif" font-size="10" fill="#5f6368" text-anchor="end" transform="rotate(-90 400.5 515.0)">Tesla M40</text>
<rect x="410.9" y="466.3" width="9.3" height="41.7" fill="#8d9299"/>
<text x="415.5" y="515.0" font-family="DejaVu Sans, Helvetica, Arial, sans-serif" font-size="10" fill="#5f6368" text-anchor="end" transform="rotate(-90 415.5 515.0)">GTX 980 Ti</text>
<rect x="425.9" y="465.3" width="9.3" height="42.7" fill="#8d9299"/>
<text x="430.5" y="515.0" font-family="DejaVu Sans, Helvetica, Arial, sans-serif" font-size="10" fill="#5f6368" text-anchor="end" transform="rotate(-90 430.5 515.0)">RTX 2000 Ada</text>
<rect x="440.9" y="465.3" width="9.3" height="42.7" fill="#8d9299"/>
<text x="445.5" y="515.0" font-family="DejaVu Sans, Helvetica, Arial, sans-serif" font-size="10" fill="#5f6368" text-anchor="end" transform="rotate(-90 445.5 515.0)">Quadro P5000</text>
<rect x="455.9" y="464.9" width="9.3" height="43.1" fill="#8d9299"/>
<text x="460.5" y="515.0" font-family="DejaVu Sans, Helvetica, Arial, sans-serif" font-size="10" fill="#5f6368" text-anchor="end" transform="rotate(-90 460.5 515.0)">RTX 3050 Ti</text>
<rect x="470.9" y="458.0" width="9.3" height="50.0" fill="#8d9299"/>
<text x="475.5" y="515.0" font-family="DejaVu Sans, Helvetica, Arial, sans-serif" font-size="10" fill="#5f6368" text-anchor="end" transform="rotate(-90 475.5 515.0)">Tesla P40</text>
<rect x="485.9" y="456.3" width="9.3" height="51.7" fill="#8d9299"/>
<text x="490.5" y="515.0" font-family="DejaVu Sans, Helvetica, Arial, sans-serif" font-size="10" fill="#5f6368" text-anchor="end" transform="rotate(-90 490.5 515.0)">GTX 1660 Ti</text>
<rect x="500.9" y="450.6" width="9.3" height="57.4" fill="#8d9299"/>
<text x="505.5" y="515.0" font-family="DejaVu Sans, Helvetica, Arial, sans-serif" font-size="10" fill="#5f6368" text-anchor="end" transform="rotate(-90 505.5 515.0)">GTX TITAN X (Pascal)</text>
<rect x="515.9" y="450.5" width="9.3" height="57.5" fill="#8d9299"/>
<text x="520.5" y="515.0" font-family="DejaVu Sans, Helvetica, Arial, sans-serif" font-size="10" fill="#5f6368" text-anchor="end" transform="rotate(-90 520.5 515.0)">GTX 1080 Ti</text>
<rect x="530.9" y="448.5" width="9.3" height="59.5" fill="#8d9299"/>
<text x="535.5" y="515.0" font-family="DejaVu Sans, Helvetica, Arial, sans-serif" font-size="10" fill="#5f6368" text-anchor="end" transform="rotate(-90 535.5 515.0)">RTX 2060</text>
<rect x="545.9" y="445.8" width="9.3" height="62.2" fill="#8d9299"/>
<text x="550.5" y="515.0" font-family="DejaVu Sans, Helvetica, Arial, sans-serif" font-size="10" fill="#5f6368" text-anchor="end" transform="rotate(-90 550.5 515.0)">RTX 2070</text>
<rect x="560.9" y="445.3" width="9.3" height="62.7" fill="#8d9299"/>
<text x="565.5" y="515.0" font-family="DejaVu Sans, Helvetica, Arial, sans-serif" font-size="10" fill="#5f6368" text-anchor="end" transform="rotate(-90 565.5 515.0)">RTX 4060 Ti</text>
<rect x="575.9" y="440.5" width="9.3" height="67.5" fill="#8d9299"/>
<text x="580.5" y="515.0" font-family="DejaVu Sans, Helvetica, Arial, sans-serif" font-size="10" fill="#5f6368" text-anchor="end" transform="rotate(-90 580.5 515.0)">RTX A4000 (ECC On)</text>
<rect x="590.9" y="436.7" width="9.3" height="71.3" fill="#8d9299"/>
<text x="595.5" y="515.0" font-family="DejaVu Sans, Helvetica, Arial, sans-serif" font-size="10" fill="#5f6368" text-anchor="end" transform="rotate(-90 595.5 515.0)">GTX TITAN Xp</text>
<rect x="605.9" y="432.3" width="9.3" height="75.7" fill="#8d9299"/>
<text x="610.5" y="515.0" font-family="DejaVu Sans, Helvetica, Arial, sans-serif" font-size="10" fill="#5f6368" text-anchor="end" transform="rotate(-90 610.5 515.0)">Tesla P100</text>
<rect x="620.9" y="430.4" width="9.3" height="77.6" fill="#8d9299"/>
<text x="625.5" y="515.0" font-family="DejaVu Sans, Helvetica, Arial, sans-serif" font-size="10" fill="#5f6368" text-anchor="end" transform="rotate(-90 625.5 515.0)">RTX 2060 SUPER</text>
<rect x="635.9" y="428.6" width="9.3" height="79.4" fill="#8d9299"/>
<text x="640.5" y="515.0" font-family="DejaVu Sans, Helvetica, Arial, sans-serif" font-size="10" fill="#5f6368" text-anchor="end" transform="rotate(-90 640.5 515.0)">RTX 2080</text>
<rect x="650.9" y="424.7" width="9.3" height="83.3" fill="#8d9299"/>
<text x="655.5" y="515.0" font-family="DejaVu Sans, Helvetica, Arial, sans-serif" font-size="10" fill="#5f6368" text-anchor="end" transform="rotate(-90 655.5 515.0)">Tesla P100 SXM2</text>
<rect x="665.9" y="424.2" width="9.3" height="83.8" fill="#8d9299"/>
<text x="670.5" y="515.0" font-family="DejaVu Sans, Helvetica, Arial, sans-serif" font-size="10" fill="#5f6368" text-anchor="end" transform="rotate(-90 670.5 515.0)">RTX 3080 (mobile)</text>
<rect x="680.9" y="419.3" width="9.3" height="88.7" fill="#8d9299"/>
<text x="685.5" y="515.0" font-family="DejaVu Sans, Helvetica, Arial, sans-serif" font-size="10" fill="#5f6368" text-anchor="end" transform="rotate(-90 685.5 515.0)">RTX 2080 SUPER</text>
<rect x="695.9" y="418.5" width="9.3" height="89.5" fill="#8d9299"/>
<text x="700.5" y="515.0" font-family="DejaVu Sans, Helvetica, Arial, sans-serif" font-size="10" fill="#5f6368" text-anchor="end" transform="rotate(-90 700.5 515.0)">RTX 2080 Ti</text>
<rect x="710.9" y="417.0" width="9.3" height="91.0" fill="#8d9299"/>
<text x="715.5" y="515.0" font-family="DejaVu Sans, Helvetica, Arial, sans-serif" font-size="10" fill="#5f6368" text-anchor="end" transform="rotate(-90 715.5 515.0)">RTX 3060 Ti</text>
<rect x="725.9" y="413.5" width="9.3" height="94.5" fill="#8d9299"/>
<text x="730.5" y="515.0" font-family="DejaVu Sans, Helvetica, Arial, sans-serif" font-size="10" fill="#5f6368" text-anchor="end" transform="rotate(-90 730.5 515.0)">RTX 4070 SUPER</text>
<rect x="740.9" y="410.0" width="9.3" height="98.0" fill="#8d9299"/>
<text x="745.5" y="515.0" font-family="DejaVu Sans, Helvetica, Arial, sans-serif" font-size="10" fill="#5f6368" text-anchor="end" transform="rotate(-90 745.5 515.0)">TITAN V</text>
<rect x="755.9" y="403.8" width="9.3" height="104.2" fill="#8d9299"/>
<text x="760.5" y="515.0" font-family="DejaVu Sans, Helvetica, Arial, sans-serif" font-size="10" fill="#5f6368" text-anchor="end" transform="rotate(-90 760.5 515.0)">RTX 4070</text>
<rect x="770.9" y="402.0" width="9.3" height="106.0" fill="#8d9299"/>
<text x="775.5" y="515.0" font-family="DejaVu Sans, Helvetica, Arial, sans-serif" font-size="10" fill="#5f6368" text-anchor="end" transform="rotate(-90 775.5 515.0)">RTX 2080 Ti OC</text>
<rect x="785.9" y="397.3" width="9.3" height="110.7" fill="#8d9299"/>
<text x="790.5" y="515.0" font-family="DejaVu Sans, Helvetica, Arial, sans-serif" font-size="10" fill="#5f6368" text-anchor="end" transform="rotate(-90 790.5 515.0)">TITAN RTX</text>
<rect x="800.9" y="393.7" width="9.3" height="114.3" fill="#8d9299"/>
<text x="805.5" y="515.0" font-family="DejaVu Sans, Helvetica, Arial, sans-serif" font-size="10" fill="#5f6368" text-anchor="end" transform="rotate(-90 805.5 515.0)">RTX 3070 Ti Lite Hash Rate</text>
<rect x="815.9" y="391.3" width="9.3" height="116.7" fill="#8d9299"/>
<text x="820.5" y="515.0" font-family="DejaVu Sans, Helvetica, Arial, sans-serif" font-size="10" fill="#5f6368" text-anchor="end" transform="rotate(-90 820.5 515.0)">RTX A6000 (ECC On)</text>
<rect x="830.9" y="387.9" width="9.3" height="120.1" fill="#8d9299"/>
<text x="835.5" y="515.0" font-family="DejaVu Sans, Helvetica, Arial, sans-serif" font-size="10" fill="#5f6368" text-anchor="end" transform="rotate(-90 835.5 515.0)">A40</text>
<rect x="845.9" y="380.1" width="9.3" height="127.9" fill="#8d9299"/>
<text x="850.5" y="515.0" font-family="DejaVu Sans, Helvetica, Arial, sans-serif" font-size="10" fill="#5f6368" text-anchor="end" transform="rotate(-90 850.5 515.0)">V100-SXM2-32GB</text>
<rect x="860.9" y="364.2" width="9.3" height="143.8" fill="#8d9299"/>
<text x="865.5" y="515.0" font-family="DejaVu Sans, Helvetica, Arial, sans-serif" font-size="10" fill="#5f6368" text-anchor="end" transform="rotate(-90 865.5 515.0)">RTX 3080</text>
<rect x="875.9" y="360.1" width="9.3" height="147.9" fill="#8d9299"/>
<text x="880.5" y="515.0" font-family="DejaVu Sans, Helvetica, Arial, sans-serif" font-size="10" fill="#5f6368" text-anchor="end" transform="rotate(-90 880.5 515.0)">RTX A6000 (ECC Off)</text>
<rect x="890.9" y="350.0" width="9.3" height="158.0" fill="#8d9299"/>
<text x="895.5" y="515.0" font-family="DejaVu Sans, Helvetica, Arial, sans-serif" font-size="10" fill="#5f6368" text-anchor="end" transform="rotate(-90 895.5 515.0)">RTX 3080 (12Gb)</text>
<rect x="905.9" y="345.8" width="9.3" height="162.2" fill="#8d9299"/>
<text x="910.5" y="515.0" font-family="DejaVu Sans, Helvetica, Arial, sans-serif" font-size="10" fill="#5f6368" text-anchor="end" transform="rotate(-90 910.5 515.0)">RTX 5070 Ti</text>
<rect x="920.9" y="333.3" width="9.3" height="174.7" fill="#8d9299"/>
<text x="925.5" y="515.0" font-family="DejaVu Sans, Helvetica, Arial, sans-serif" font-size="10" fill="#5f6368" text-anchor="end" transform="rotate(-90 925.5 515.0)">RTX 3090</text>
<rect x="935.9" y="314.4" width="9.3" height="193.6" fill="#8d9299"/>
<text x="940.5" y="515.0" font-family="DejaVu Sans, Helvetica, Arial, sans-serif" font-size="10" fill="#5f6368" text-anchor="end" transform="rotate(-90 940.5 515.0)">RTX 5080</text>
<rect x="950.9" y="309.1" width="9.3" height="198.9" fill="#8d9299"/>
<text x="955.5" y="515.0" font-family="DejaVu Sans, Helvetica, Arial, sans-serif" font-size="10" fill="#5f6368" text-anchor="end" transform="rotate(-90 955.5 515.0)">A100</text>
<rect x="965.9" y="251.4" width="9.3" height="256.6" fill="#8d9299"/>
<text x="970.5" y="515.0" font-family="DejaVu Sans, Helvetica, Arial, sans-serif" font-size="10" fill="#5f6368" text-anchor="end" transform="rotate(-90 970.5 515.0)">RTX 4090</text>
<rect x="980.9" y="107.3" width="9.3" height="400.7" fill="#8d9299"/>
<text x="985.5" y="515.0" font-family="DejaVu Sans, Helvetica, Arial, sans-serif" font-size="10" fill="#5f6368" text-anchor="end" transform="rotate(-90 985.5 515.0)">RTX 5090</text>
<rect x="995.9" y="94.2" width="9.3" height="413.8" fill="#8d9299"/>
<text x="1000.5" y="515.0" font-family="DejaVu Sans, Helvetica, Arial, sans-serif" font-size="10" fill="#5f6368" text-anchor="end" transform="rotate(-90 1000.5 515.0)">H100</text>
<rect x="78" y="695" width="11" height="11" fill="#0b4f9e"/>
<text x="95" y="704" font-family="DejaVu Sans, Helvetica, Arial, sans-serif" font-size="11" fill="#202124">Apple M4, Metal</text>
<rect x="203.0" y="695" width="11" height="11" fill="#8d9299"/>
<text x="220.0" y="704" font-family="DejaVu Sans, Helvetica, Arial, sans-serif" font-size="11" fill="#202124">CUDA GPU / OOMMF CPU</text>
</svg>
