<svg xmlns="http://www.w3.org/2000/svg" width="740" height="562" viewBox="0 0 740 562">
<defs><pattern id="hatch" width="5" height="5" patternTransform="rotate(45)" patternUnits="userSpaceOnUse"><line x1="0" y1="0" x2="0" y2="5" stroke="#ffffff" stroke-width="2.1"/></pattern></defs>
<rect width="740" height="562" fill="#ffffff"/>
<text x="78" y="30" font-family="DejaVu Sans, Helvetica, Arial, sans-serif" font-size="15" font-weight="600" fill="#202124">MuMax3 Apple-Silicon model at 4.19M cells (2048x2048)</text>
<text x="78" y="48" font-family="DejaVu Sans, Helvetica, Arial, sans-serif" font-size="11" fill="#5f6368">M4 10c is the measured MacBook Air anchor. All other central values combine Metal STREAM, same-build</text>
<text x="78" y="63" font-family="DejaVu Sans, Helvetica, Arial, sans-serif" font-size="11" fill="#5f6368">llama.cpp TG/PP, bandwidth, GPU width, and (for M5) MLX. Whiskers are workload/model envelopes, not</text>
<text x="78" y="78" font-family="DejaVu Sans, Helvetica, Arial, sans-serif" font-size="11" fill="#5f6368">confidence intervals.</text>
<line x1="78" y1="392.0" x2="714.0" y2="392.0" stroke="#e4e6e9" stroke-width="1"/>
<text x="70" y="396.0" font-family="DejaVu Sans, Helvetica, Arial, sans-serif" font-size="10" fill="#5f6368" text-anchor="end">0</text>
<line x1="78" y1="334.8" x2="714.0" y2="334.8" stroke="#e4e6e9" stroke-width="1"/>
<text x="70" y="338.8" font-family="DejaVu Sans, Helvetica, Arial, sans-serif" font-size="10" fill="#5f6368" text-anchor="end">200</text>
<line x1="78" y1="277.6" x2="714.0" y2="277.6" stroke="#e4e6e9" stroke-width="1"/>
<text x="70" y="281.6" font-family="DejaVu Sans, Helvetica, Arial, sans-serif" font-size="10" fill="#5f6368" text-anchor="end">400</text>
<line x1="78" y1="220.4" x2="714.0" y2="220.4" stroke="#e4e6e9" stroke-width="1"/>
<text x="70" y="224.4" font-family="DejaVu Sans, Helvetica, Arial, sans-serif" font-size="10" fill="#5f6368" text-anchor="end">600</text>
<line x1="78" y1="163.2" x2="714.0" y2="163.2" stroke="#e4e6e9" stroke-width="1"/>
<text x="70" y="167.2" font-family="DejaVu Sans, Helvetica, Arial, sans-serif" font-size="10" fill="#5f6368" text-anchor="end">800</text>
<line x1="78" y1="106.0" x2="714.0" y2="106.0" stroke="#e4e6e9" stroke-width="1"/>
<text x="70" y="110.0" font-family="DejaVu Sans, Helvetica, Arial, sans-serif" font-size="10" fill="#5f6368" text-anchor="end">1000</text>
<line x1="78" y1="106" x2="78" y2="392" stroke="#5f6368" stroke-width="1"/>
<line x1="78" y1="392" x2="714.0" y2="392" stroke="#5f6368" stroke-width="1"/>
<text x="18" y="249.0" font-family="DejaVu Sans, Helvetica, Arial, sans-serif" font-size="11" fill="#202124" text-anchor="middle" transform="rotate(-90 18 249.0)">throughput (M cell-evals/s)</text>
<g><title>Apple M1 8c: 61.3 M cell-evals/s; workload/model range 55.5–84.0 (not CI)</title>
<rect x="83.0" y="374.5" width="16.4" height="17.5" fill="#4b9ae8"/>
<rect x="83.0" y="374.5" width="16.4" height="17.5" fill="url(#hatch)"/>
<line x1="91.2" y1="368.0" x2="91.2" y2="376.1" stroke="#173a5e" stroke-width="1.4"/>
<line x1="84.3" y1="376.1" x2="98.2" y2="376.1" stroke="#173a5e" stroke-width="1.4"/>
<line x1="84.3" y1="368.0" x2="98.2" y2="368.0" stroke="#173a5e" stroke-width="1.4"/>
<text x="91.2" y="363.0" font-family="DejaVu Sans, Helvetica, Arial, sans-serif" font-size="9" fill="#202124" text-anchor="middle">61</text>
</g>
<text x="91.2" y="399.0" font-family="DejaVu Sans, Helvetica, Arial, sans-serif" font-size="10" fill="#5f6368" text-anchor="end" transform="rotate(-90 91.2 399.0)">Apple M1 8c</text>
<g><title>Apple M2 10c: 93.4 M cell-evals/s; workload/model range 85.2–105.0 (not CI)</title>
<rect x="109.5" y="365.3" width="16.4" height="26.7" fill="#4b9ae8"/>
<rect x="109.5" y="365.3" width="16.4" height="26.7" fill="url(#hatch)"/>
<line x1="117.8" y1="362.0" x2="117.8" y2="367.6" stroke="#173a5e" stroke-width="1.4"/>
<line x1="110.8" y1="367.6" x2="124.7" y2="367.6" stroke="#173a5e" stroke-width="1.4"/>
<line x1="110.8" y1="362.0" x2="124.7" y2="362.0" stroke="#173a5e" stroke-width="1.4"/>
<text x="117.8" y="357.0" font-family="DejaVu Sans, Helvetica, Arial, sans-serif" font-size="9" fill="#202124" text-anchor="middle">93</text>
</g>
<text x="117.8" y="399.0" font-family="DejaVu Sans, Helvetica, Arial, sans-serif" font-size="10" fill="#5f6368" text-anchor="end" transform="rotate(-90 117.8 399.0)">Apple M2 10c</text>
<g><title>Apple M3 10c: 93.9 M cell-evals/s; workload/model range 87.5–105.0 (not CI)</title>
<rect x="136.0" y="365.2" width="16.4" height="26.8" fill="#4b9ae8"/>
<rect x="136.0" y="365.2" width="16.4" height="26.8" fill="url(#hatch)"/>
<line x1="144.2" y1="362.0" x2="144.2" y2="367.0" stroke="#173a5e" stroke-width="1.4"/>
<line x1="137.3" y1="367.0" x2="151.2" y2="367.0" stroke="#173a5e" stroke-width="1.4"/>
<line x1="137.3" y1="362.0" x2="151.2" y2="362.0" stroke="#173a5e" stroke-width="1.4"/>
<text x="144.2" y="357.0" font-family="DejaVu Sans, Helvetica, Arial, sans-serif" font-size="9" fill="#202124" text-anchor="middle">94</text>
</g>
<text x="144.2" y="399.0" font-family="DejaVu Sans, Helvetica, Arial, sans-serif" font-size="10" fill="#5f6368" text-anchor="end" transform="rotate(-90 144.2 399.0)">Apple M3 10c</text>
<g><title>Apple M4 10c: 105.0 M cell-evals/s</title>
<rect x="162.5" y="362.0" width="16.4" height="30.0" fill="#0b4f9e"/>
<text x="170.8" y="357.0" font-family="DejaVu Sans, Helvetica, Arial, sans-serif" font-size="9" fill="#202124" text-anchor="middle">105</text>
</g>
<text x="170.8" y="399.0" font-family="DejaVu Sans, Helvetica, Arial, sans-serif" font-size="10" fill="#202124" font-weight="600" text-anchor="end" transform="rotate(-90 170.8 399.0)">Apple M4 10c</text>
<g><title>Apple M5 10c: 123.2 M cell-evals/s; workload/model range 105.0–133.8 (not CI)</title>
<rect x="189.0" y="356.8" width="16.4" height="35.2" fill="#4b9ae8"/>
<rect x="189.0" y="356.8" width="16.4" height="35.2" fill="url(#hatch)"/>
<line x1="197.2" y1="353.7" x2="197.2" y2="362.0" stroke="#173a5e" stroke-width="1.4"/>
<line x1="190.3" y1="362.0" x2="204.2" y2="362.0" stroke="#173a5e" stroke-width="1.4"/>
<line x1="190.3" y1="353.7" x2="204.2" y2="353.7" stroke="#173a5e" stroke-width="1.4"/>
<text x="197.2" y="348.7" font-family="DejaVu Sans, Helvetica, Arial, sans-serif" font-size="9" fill="#202124" text-anchor="middle">123</text>
</g>
<text x="197.2" y="399.0" font-family="DejaVu Sans, Helvetica, Arial, sans-serif" font-size="10" fill="#5f6368" text-anchor="end" transform="rotate(-90 197.2 399.0)">Apple M5 10c</text>
<g><title>Apple M3 Pro 18c: 146.7 M cell-evals/s; workload/model range 131.2–189.0 (not CI)</title>
<rect x="215.5" y="350.1" width="16.4" height="41.9" fill="#4b9ae8"/>
<rect x="215.5" y="350.1" width="16.4" height="41.9" fill="url(#hatch)"/>
<line x1="223.8" y1="338.0" x2="223.8" y2="354.5" stroke="#173a5e" stroke-width="1.4"/>
<line x1="216.8" y1="354.5" x2="230.7" y2="354.5" stroke="#173a5e" stroke-width="1.4"/>
<line x1="216.8" y1="338.0" x2="230.7" y2="338.0" stroke="#173a5e" stroke-width="1.4"/>
<text x="223.8" y="333.0" font-family="DejaVu Sans, Helvetica, Arial, sans-serif" font-size="9" fill="#202124" text-anchor="middle">147</text>
</g>
<text x="223.8" y="399.0" font-family="DejaVu Sans, Helvetica, Arial, sans-serif" font-size="10" fill="#5f6368" text-anchor="end" transform="rotate(-90 223.8 399.0)">Apple M3 Pro 18c</text>
<g><title>Apple M1 Pro 16c: 153.2 M cell-evals/s; workload/model range 126.6–175.0 (not CI)</title>
<rect x="242.0" y="348.2" width="16.4" height="43.8" fill="#4b9ae8"/>
<rect x="242.0" y="348.2" width="16.4" height="43.8" fill="url(#hatch)"/>
<line x1="250.2" y1="342.0" x2="250.2" y2="355.8" stroke="#173a5e" stroke-width="1.4"/>
<line x1="243.3" y1="355.8" x2="257.2" y2="355.8" stroke="#173a5e" stroke-width="1.4"/>
<line x1="243.3" y1="342.0" x2="257.2" y2="342.0" stroke="#173a5e" stroke-width="1.4"/>
<text x="250.2" y="337.0" font-family="DejaVu Sans, Helvetica, Arial, sans-serif" font-size="9" fill="#202124" text-anchor="middle">153</text>
</g>
<text x="250.2" y="399.0" font-family="DejaVu Sans, Helvetica, Arial, sans-serif" font-size="10" fill="#5f6368" text-anchor="end" transform="rotate(-90 250.2 399.0)">Apple M1 Pro 16c</text>
<g><title>Apple M2 Pro 19c: 175.9 M cell-evals/s; workload/model range 161.8–199.5 (not CI)</title>
<rect x="268.5" y="341.7" width="16.4" height="50.3" fill="#4b9ae8"/>
<rect x="268.5" y="341.7" width="16.4" height="50.3" fill="url(#hatch)"/>
<line x1="276.8" y1="335.0" x2="276.8" y2="345.7" stroke="#173a5e" stroke-width="1.4"/>
<line x1="269.8" y1="345.7" x2="283.7" y2="345.7" stroke="#173a5e" stroke-width="1.4"/>
<line x1="269.8" y1="335.0" x2="283.7" y2="335.0" stroke="#173a5e" stroke-width="1.4"/>
<text x="276.8" y="330.0" font-family="DejaVu Sans, Helvetica, Arial, sans-serif" font-size="9" fill="#202124" text-anchor="middle">176</text>
</g>
<text x="276.8" y="399.0" font-family="DejaVu Sans, Helvetica, Arial, sans-serif" font-size="10" fill="#5f6368" text-anchor="end" transform="rotate(-90 276.8 399.0)">Apple M2 Pro 19c</text>
<g><title>Apple M4 Pro 16c: 208.8 M cell-evals/s; workload/model range 168.0–238.8 (not CI)</title>
<rect x="295.0" y="332.3" width="16.4" height="59.7" fill="#4b9ae8"/>
<rect x="295.0" y="332.3" width="16.4" height="59.7" fill="url(#hatch)"/>
<line x1="303.2" y1="323.7" x2="303.2" y2="344.0" stroke="#173a5e" stroke-width="1.4"/>
<line x1="296.3" y1="344.0" x2="310.2" y2="344.0" stroke="#173a5e" stroke-width="1.4"/>
<line x1="296.3" y1="323.7" x2="310.2" y2="323.7" stroke="#173a5e" stroke-width="1.4"/>
<text x="303.2" y="318.7" font-family="DejaVu Sans, Helvetica, Arial, sans-serif" font-size="9" fill="#202124" text-anchor="middle">209</text>
</g>
<text x="303.2" y="399.0" font-family="DejaVu Sans, Helvetica, Arial, sans-serif" font-size="10" fill="#5f6368" text-anchor="end" transform="rotate(-90 303.2 399.0)">Apple M4 Pro 16c</text>
<g><title>Apple M4 Pro 20c: 235.3 M cell-evals/s; workload/model range 209.8–260.3 (not CI)</title>
<rect x="321.5" y="324.7" width="16.4" height="67.3" fill="#4b9ae8"/>
<rect x="321.5" y="324.7" width="16.4" height="67.3" fill="url(#hatch)"/>
<line x1="329.8" y1="317.5" x2="329.8" y2="332.0" stroke="#173a5e" stroke-width="1.4"/>
<line x1="322.8" y1="332.0" x2="336.7" y2="332.0" stroke="#173a5e" stroke-width="1.4"/>
<line x1="322.8" y1="317.5" x2="336.7" y2="317.5" stroke="#173a5e" stroke-width="1.4"/>
<text x="329.8" y="312.5" font-family="DejaVu Sans, Helvetica, Arial, sans-serif" font-size="9" fill="#202124" text-anchor="middle">235</text>
</g>
<text x="329.8" y="399.0" font-family="DejaVu Sans, Helvetica, Arial, sans-serif" font-size="10" fill="#5f6368" text-anchor="end" transform="rotate(-90 329.8 399.0)">Apple M4 Pro 20c</text>
<g><title>Apple M5 Pro 16c: 237.9 M cell-evals/s; workload/model range 168.0–269.6 (not CI)</title>
<rect x="348.0" y="324.0" width="16.4" height="68.0" fill="#4b9ae8"/>
<rect x="348.0" y="324.0" width="16.4" height="68.0" fill="url(#hatch)"/>
<line x1="356.2" y1="314.9" x2="356.2" y2="344.0" stroke="#173a5e" stroke-width="1.4"/>
<line x1="349.3" y1="344.0" x2="363.2" y2="344.0" stroke="#173a5e" stroke-width="1.4"/>
<line x1="349.3" y1="314.9" x2="363.2" y2="314.9" stroke="#173a5e" stroke-width="1.4"/>
<text x="356.2" y="309.9" font-family="DejaVu Sans, Helvetica, Arial, sans-serif" font-size="9" fill="#202124" text-anchor="middle">238</text>
</g>
<text x="356.2" y="399.0" font-family="DejaVu Sans, Helvetica, Arial, sans-serif" font-size="10" fill="#5f6368" text-anchor="end" transform="rotate(-90 356.2 399.0)">Apple M5 Pro 16c</text>
<g><title>Apple M5 Pro 20c: 252.0 M cell-evals/s; workload/model range 210.0–273.2 (not CI)</title>
<rect x="374.5" y="319.9" width="16.4" height="72.1" fill="#4b9ae8"/>
<rect x="374.5" y="319.9" width="16.4" height="72.1" fill="url(#hatch)"/>
<line x1="382.8" y1="313.9" x2="382.8" y2="332.0" stroke="#173a5e" stroke-width="1.4"/>
<line x1="375.8" y1="332.0" x2="389.7" y2="332.0" stroke="#173a5e" stroke-width="1.4"/>
<line x1="375.8" y1="313.9" x2="389.7" y2="313.9" stroke="#173a5e" stroke-width="1.4"/>
<text x="382.8" y="308.9" font-family="DejaVu Sans, Helvetica, Arial, sans-serif" font-size="9" fill="#202124" text-anchor="middle">252</text>
</g>
<text x="382.8" y="399.0" font-family="DejaVu Sans, Helvetica, Arial, sans-serif" font-size="10" fill="#5f6368" text-anchor="end" transform="rotate(-90 382.8 399.0)">Apple M5 Pro 20c</text>
<g><title>Apple M3 Max 30c: 270.9 M cell-evals/s; workload/model range 256.0–314.9 (not CI)</title>
<rect x="401.0" y="314.5" width="16.4" height="77.5" fill="#4b9ae8"/>
<rect x="401.0" y="314.5" width="16.4" height="77.5" fill="url(#hatch)"/>
<line x1="409.2" y1="301.9" x2="409.2" y2="318.8" stroke="#173a5e" stroke-width="1.4"/>
<line x1="402.3" y1="318.8" x2="416.2" y2="318.8" stroke="#173a5e" stroke-width="1.4"/>
<line x1="402.3" y1="301.9" x2="416.2" y2="301.9" stroke="#173a5e" stroke-width="1.4"/>
<text x="409.2" y="296.9" font-family="DejaVu Sans, Helvetica, Arial, sans-serif" font-size="9" fill="#202124" text-anchor="middle">271</text>
</g>
<text x="409.2" y="399.0" font-family="DejaVu Sans, Helvetica, Arial, sans-serif" font-size="10" fill="#5f6368" text-anchor="end" transform="rotate(-90 409.2 399.0)">Apple M3 Max 30c</text>
<g><title>Apple M1 Max 32c: 283.6 M cell-evals/s; workload/model range 251.8–349.9 (not CI)</title>
<rect x="427.5" y="310.9" width="16.4" height="81.1" fill="#4b9ae8"/>
<rect x="427.5" y="310.9" width="16.4" height="81.1" fill="url(#hatch)"/>
<line x1="435.8" y1="291.9" x2="435.8" y2="320.0" stroke="#173a5e" stroke-width="1.4"/>
<line x1="428.8" y1="320.0" x2="442.7" y2="320.0" stroke="#173a5e" stroke-width="1.4"/>
<line x1="428.8" y1="291.9" x2="442.7" y2="291.9" stroke="#173a5e" stroke-width="1.4"/>
<text x="435.8" y="286.9" font-family="DejaVu Sans, Helvetica, Arial, sans-serif" font-size="9" fill="#202124" text-anchor="middle">284</text>
</g>
<text x="435.8" y="399.0" font-family="DejaVu Sans, Helvetica, Arial, sans-serif" font-size="10" fill="#5f6368" text-anchor="end" transform="rotate(-90 435.8 399.0)">Apple M1 Max 32c</text>
<g><title>Apple M2 Max 38c: 331.2 M cell-evals/s; workload/model range 305.2–398.9 (not CI)</title>
<rect x="454.0" y="297.3" width="16.4" height="94.7" fill="#4b9ae8"/>
<rect x="454.0" y="297.3" width="16.4" height="94.7" fill="url(#hatch)"/>
<line x1="462.2" y1="277.9" x2="462.2" y2="304.7" stroke="#173a5e" stroke-width="1.4"/>
<line x1="455.3" y1="304.7" x2="469.2" y2="304.7" stroke="#173a5e" stroke-width="1.4"/>
<line x1="455.3" y1="277.9" x2="469.2" y2="277.9" stroke="#173a5e" stroke-width="1.4"/>
<text x="462.2" y="272.9" font-family="DejaVu Sans, Helvetica, Arial, sans-serif" font-size="9" fill="#202124" text-anchor="middle">331</text>
</g>
<text x="462.2" y="399.0" font-family="DejaVu Sans, Helvetica, Arial, sans-serif" font-size="10" fill="#5f6368" text-anchor="end" transform="rotate(-90 462.2 399.0)">Apple M2 Max 38c</text>
<g><title>Apple M4 Max 32c: 333.5 M cell-evals/s; workload/model range 321.9–358.7 (not CI)</title>
<rect x="480.5" y="296.6" width="16.4" height="95.4" fill="#4b9ae8"/>
<rect x="480.5" y="296.6" width="16.4" height="95.4" fill="url(#hatch)"/>
<line x1="488.8" y1="289.4" x2="488.8" y2="299.9" stroke="#173a5e" stroke-width="1.4"/>
<line x1="481.8" y1="299.9" x2="495.7" y2="299.9" stroke="#173a5e" stroke-width="1.4"/>
<line x1="481.8" y1="289.4" x2="495.7" y2="289.4" stroke="#173a5e" stroke-width="1.4"/>
<text x="488.8" y="284.4" font-family="DejaVu Sans, Helvetica, Arial, sans-serif" font-size="9" fill="#202124" text-anchor="middle">334</text>
</g>
<text x="488.8" y="399.0" font-family="DejaVu Sans, Helvetica, Arial, sans-serif" font-size="10" fill="#5f6368" text-anchor="end" transform="rotate(-90 488.8 399.0)">Apple M4 Max 32c</text>
<g><title>Apple M3 Max 40c: 357.8 M cell-evals/s; workload/model range 309.3–419.9 (not CI)</title>
<rect x="507.0" y="289.7" width="16.4" height="102.3" fill="#4b9ae8"/>
<rect x="507.0" y="289.7" width="16.4" height="102.3" fill="url(#hatch)"/>
<line x1="515.2" y1="271.9" x2="515.2" y2="303.5" stroke="#173a5e" stroke-width="1.4"/>
<line x1="508.3" y1="303.5" x2="522.2" y2="303.5" stroke="#173a5e" stroke-width="1.4"/>
<line x1="508.3" y1="271.9" x2="522.2" y2="271.9" stroke="#173a5e" stroke-width="1.4"/>
<text x="515.2" y="266.9" font-family="DejaVu Sans, Helvetica, Arial, sans-serif" font-size="9" fill="#202124" text-anchor="middle">358</text>
</g>
<text x="515.2" y="399.0" font-family="DejaVu Sans, Helvetica, Arial, sans-serif" font-size="10" fill="#5f6368" text-anchor="end" transform="rotate(-90 515.2 399.0)">Apple M3 Max 40c</text>
<g><title>Apple M5 Max 32c: 383.3 M cell-evals/s; workload/model range 335.9–402.4 (not CI)</title>
<rect x="533.5" y="282.4" width="16.4" height="109.6" fill="#4b9ae8"/>
<rect x="533.5" y="282.4" width="16.4" height="109.6" fill="url(#hatch)"/>
<line x1="541.8" y1="276.9" x2="541.8" y2="295.9" stroke="#173a5e" stroke-width="1.4"/>
<line x1="534.8" y1="295.9" x2="548.7" y2="295.9" stroke="#173a5e" stroke-width="1.4"/>
<line x1="534.8" y1="276.9" x2="548.7" y2="276.9" stroke="#173a5e" stroke-width="1.4"/>
<text x="541.8" y="271.9" font-family="DejaVu Sans, Helvetica, Arial, sans-serif" font-size="9" fill="#202124" text-anchor="middle">383</text>
</g>
<text x="541.8" y="399.0" font-family="DejaVu Sans, Helvetica, Arial, sans-serif" font-size="10" fill="#5f6368" text-anchor="end" transform="rotate(-90 541.8 399.0)">Apple M5 Max 32c</text>
<g><title>Apple M4 Max 40c: 413.9 M cell-evals/s; workload/model range 389.3–477.6 (not CI)</title>
<rect x="560.0" y="273.6" width="16.4" height="118.4" fill="#4b9ae8"/>
<rect x="560.0" y="273.6" width="16.4" height="118.4" fill="url(#hatch)"/>
<line x1="568.2" y1="255.4" x2="568.2" y2="280.7" stroke="#173a5e" stroke-width="1.4"/>
<line x1="561.3" y1="280.7" x2="575.2" y2="280.7" stroke="#173a5e" stroke-width="1.4"/>
<line x1="561.3" y1="255.4" x2="575.2" y2="255.4" stroke="#173a5e" stroke-width="1.4"/>
<text x="568.2" y="250.4" font-family="DejaVu Sans, Helvetica, Arial, sans-serif" font-size="9" fill="#202124" text-anchor="middle">414</text>
</g>
<text x="568.2" y="399.0" font-family="DejaVu Sans, Helvetica, Arial, sans-serif" font-size="10" fill="#5f6368" text-anchor="end" transform="rotate(-90 568.2 399.0)">Apple M4 Max 40c</text>
<g><title>Apple M5 Max 40c: 475.9 M cell-evals/s; workload/model range 419.9–537.1 (not CI)</title>
<rect x="586.5" y="255.9" width="16.4" height="136.1" fill="#4b9ae8"/>
<rect x="586.5" y="255.9" width="16.4" height="136.1" fill="url(#hatch)"/>
<line x1="594.8" y1="238.4" x2="594.8" y2="271.9" stroke="#173a5e" stroke-width="1.4"/>
<line x1="587.8" y1="271.9" x2="601.7" y2="271.9" stroke="#173a5e" stroke-width="1.4"/>
<line x1="587.8" y1="238.4" x2="601.7" y2="238.4" stroke="#173a5e" stroke-width="1.4"/>
<text x="594.8" y="233.4" font-family="DejaVu Sans, Helvetica, Arial, sans-serif" font-size="9" fill="#202124" text-anchor="middle">476</text>
</g>
<text x="594.8" y="399.0" font-family="DejaVu Sans, Helvetica, Arial, sans-serif" font-size="10" fill="#5f6368" text-anchor="end" transform="rotate(-90 594.8 399.0)">Apple M5 Max 40c</text>
<g><title>Apple M1 Ultra 64c: 494.4 M cell-evals/s; workload/model range 411.4–699.8 (not CI)</title>
<rect x="613.0" y="250.6" width="16.4" height="141.4" fill="#4b9ae8"/>
<rect x="613.0" y="250.6" width="16.4" height="141.4" fill="url(#hatch)"/>
<line x1="621.2" y1="191.8" x2="621.2" y2="274.3" stroke="#173a5e" stroke-width="1.4"/>
<line x1="614.3" y1="274.3" x2="628.2" y2="274.3" stroke="#173a5e" stroke-width="1.4"/>
<line x1="614.3" y1="191.8" x2="628.2" y2="191.8" stroke="#173a5e" stroke-width="1.4"/>
<text x="621.2" y="186.8" font-family="DejaVu Sans, Helvetica, Arial, sans-serif" font-size="9" fill="#202124" text-anchor="middle">494</text>
</g>
<text x="621.2" y="399.0" font-family="DejaVu Sans, Helvetica, Arial, sans-serif" font-size="10" fill="#5f6368" text-anchor="end" transform="rotate(-90 621.2 399.0)">Apple M1 Ultra 64c</text>
<g><title>Apple M3 Ultra 60c: 521.1 M cell-evals/s; workload/model range 435.5–716.6 (not CI)</title>
<rect x="639.5" y="243.0" width="16.4" height="149.0" fill="#4b9ae8"/>
<rect x="639.5" y="243.0" width="16.4" height="149.0" fill="url(#hatch)"/>
<line x1="647.8" y1="187.0" x2="647.8" y2="267.5" stroke="#173a5e" stroke-width="1.4"/>
<line x1="640.8" y1="267.5" x2="654.7" y2="267.5" stroke="#173a5e" stroke-width="1.4"/>
<line x1="640.8" y1="187.0" x2="654.7" y2="187.0" stroke="#173a5e" stroke-width="1.4"/>
<text x="647.8" y="182.0" font-family="DejaVu Sans, Helvetica, Arial, sans-serif" font-size="9" fill="#202124" text-anchor="middle">521</text>
</g>
<text x="647.8" y="399.0" font-family="DejaVu Sans, Helvetica, Arial, sans-serif" font-size="10" fill="#5f6368" text-anchor="end" transform="rotate(-90 647.8 399.0)">Apple M3 Ultra 60c</text>
<g><title>Apple M2 Ultra 76c: 573.6 M cell-evals/s; workload/model range 460.5–797.8 (not CI)</title>
<rect x="666.0" y="228.0" width="16.4" height="164.0" fill="#4b9ae8"/>
<rect x="666.0" y="228.0" width="16.4" height="164.0" fill="url(#hatch)"/>
<line x1="674.2" y1="163.8" x2="674.2" y2="260.3" stroke="#173a5e" stroke-width="1.4"/>
<line x1="667.3" y1="260.3" x2="681.2" y2="260.3" stroke="#173a5e" stroke-width="1.4"/>
<line x1="667.3" y1="163.8" x2="681.2" y2="163.8" stroke="#173a5e" stroke-width="1.4"/>
<text x="674.2" y="158.8" font-family="DejaVu Sans, Helvetica, Arial, sans-serif" font-size="9" fill="#202124" text-anchor="middle">574</text>
</g>
<text x="674.2" y="399.0" font-family="DejaVu Sans, Helvetica, Arial, sans-serif" font-size="10" fill="#5f6368" text-anchor="end" transform="rotate(-90 674.2 399.0)">Apple M2 Ultra 76c</text>
<g><title>Apple M3 Ultra 80c: 731.5 M cell-evals/s; workload/model range 445.9–839.8 (not CI)</title>
<rect x="692.5" y="182.8" width="16.4" height="209.2" fill="#4b9ae8"/>
<rect x="692.5" y="182.8" width="16.4" height="209.2" fill="url(#hatch)"/>
<line x1="700.8" y1="151.8" x2="700.8" y2="264.5" stroke="#173a5e" stroke-width="1.4"/>
<line x1="693.8" y1="264.5" x2="707.7" y2="264.5" stroke="#173a5e" stroke-width="1.4"/>
<line x1="693.8" y1="151.8" x2="707.7" y2="151.8" stroke="#173a5e" stroke-width="1.4"/>
<text x="700.8" y="146.8" font-family="DejaVu Sans, Helvetica, Arial, sans-serif" font-size="9" fill="#202124" text-anchor="middle">732</text>
</g>
<text x="700.8" y="399.0" font-family="DejaVu Sans, Helvetica, Arial, sans-serif" font-size="10" fill="#5f6368" text-anchor="end" transform="rotate(-90 700.8 399.0)">Apple M3 Ultra 80c</text>
<rect x="78.0" y="531" width="11" height="11" fill="#0b4f9e"/>
<text x="95.0" y="540" font-family="DejaVu Sans, Helvetica, Arial, sans-serif" font-size="11" fill="#202124">M4 10c MacBook Air, measured</text>
<rect x="300.0" y="531" width="11" height="11" fill="#4b9ae8"/>
<rect x="300.0" y="531" width="11" height="11" fill="url(#hatch)"/>
<line x1="305.5" y1="530.0" x2="305.5" y2="543.0" stroke="#173a5e" stroke-width="1.4"/>
<line x1="301.5" y1="543.0" x2="309.5" y2="543.0" stroke="#173a5e" stroke-width="1.4"/>
<line x1="301.5" y1="530.0" x2="309.5" y2="530.0" stroke="#173a5e" stroke-width="1.4"/>
<text x="317.0" y="540" font-family="DejaVu Sans, Helvetica, Arial, sans-serif" font-size="11" fill="#202124">proxy ensemble; whisker = workload/model range, not CI</text>
</svg>
