<svg xmlns="http://www.w3.org/2000/svg" width="740" height="562" viewBox="0 0 740 562">
<defs><pattern id="hatch" width="5" height="5" patternTransform="rotate(45)" patternUnits="userSpaceOnUse"><line x1="0" y1="0" x2="0" y2="5" stroke="#ffffff" stroke-width="2.1"/></pattern></defs>
<rect width="740" height="562" fill="#ffffff"/>
<text x="78" y="30" font-family="DejaVu Sans, Helvetica, Arial, sans-serif" font-size="15" font-weight="600" fill="#202124">MuMax3 Apple-Silicon model at 4.19M cells (2048x2048)</text>
<text x="78" y="48" font-family="DejaVu Sans, Helvetica, Arial, sans-serif" font-size="11" fill="#5f6368">M4 10c is the measured MacBook Air anchor. All other central values combine Metal STREAM, same-build</text>
<text x="78" y="63" font-family="DejaVu Sans, Helvetica, Arial, sans-serif" font-size="11" fill="#5f6368">llama.cpp TG/PP, bandwidth, GPU width, and (for M5) MLX. Whiskers are workload/model envelopes, not</text>
<text x="78" y="78" font-family="DejaVu Sans, Helvetica, Arial, sans-serif" font-size="11" fill="#5f6368">confidence intervals.</text>
<line x1="78" y1="392.0" x2="714.0" y2="392.0" stroke="#e4e6e9" stroke-width="1"/>
<text x="70" y="396.0" font-family="DejaVu Sans, Helvetica, Arial, sans-serif" font-size="10" fill="#5f6368" text-anchor="end">0</text>
<line x1="78" y1="334.8" x2="714.0" y2="334.8" stroke="#e4e6e9" stroke-width="1"/>
<text x="70" y="338.8" font-family="DejaVu Sans, Helvetica, Arial, sans-serif" font-size="10" fill="#5f6368" text-anchor="end">200</text>
<line x1="78" y1="277.6" x2="714.0" y2="277.6" stroke="#e4e6e9" stroke-width="1"/>
<text x="70" y="281.6" font-family="DejaVu Sans, Helvetica, Arial, sans-serif" font-size="10" fill="#5f6368" text-anchor="end">400</text>
<line x1="78" y1="220.4" x2="714.0" y2="220.4" stroke="#e4e6e9" stroke-width="1"/>
<text x="70" y="224.4" font-family="DejaVu Sans, Helvetica, Arial, sans-serif" font-size="10" fill="#5f6368" text-anchor="end">600</text>
<line x1="78" y1="163.2" x2="714.0" y2="163.2" stroke="#e4e6e9" stroke-width="1"/>
<text x="70" y="167.2" font-family="DejaVu Sans, Helvetica, Arial, sans-serif" font-size="10" fill="#5f6368" text-anchor="end">800</text>
<line x1="78" y1="106.0" x2="714.0" y2="106.0" stroke="#e4e6e9" stroke-width="1"/>
<text x="70" y="110.0" font-family="DejaVu Sans, Helvetica, Arial, sans-serif" font-size="10" fill="#5f6368" text-anchor="end">1000</text>
<line x1="78" y1="106" x2="78" y2="392" stroke="#5f6368" stroke-width="1"/>
<line x1="78" y1="392" x2="714.0" y2="392" stroke="#5f6368" stroke-width="1"/>
<text x="18" y="249.0" font-family="DejaVu Sans, Helvetica, Arial, sans-serif" font-size="11" fill="#202124" text-anchor="middle" transform="rotate(-90 18 249.0)">throughput (M cell-evals/s)</text>
<g><title>Apple M1 8c: 61.6 M cell-evals/s; workload/model range 55.8–84.4 (not CI)</title>
<rect x="83.0" y="374.4" width="16.4" height="17.6" fill="#4b9ae8"/>
<rect x="83.0" y="374.4" width="16.4" height="17.6" fill="url(#hatch)"/>
<line x1="91.2" y1="367.9" x2="91.2" y2="376.0" stroke="#173a5e" stroke-width="1.4"/>
<line x1="84.3" y1="376.0" x2="98.2" y2="376.0" stroke="#173a5e" stroke-width="1.4"/>
<line x1="84.3" y1="367.9" x2="98.2" y2="367.9" stroke="#173a5e" stroke-width="1.4"/>
<text x="91.2" y="362.9" font-family="DejaVu Sans, Helvetica, Arial, sans-serif" font-size="9" fill="#202124" text-anchor="middle">62</text>
</g>
<text x="91.2" y="399.0" font-family="DejaVu Sans, Helvetica, Arial, sans-serif" font-size="10" fill="#5f6368" text-anchor="end" transform="rotate(-90 91.2 399.0)">Apple M1 8c</text>
<g><title>Apple M2 10c: 93.9 M cell-evals/s; workload/model range 85.6–105.5 (not CI)</title>
<rect x="109.5" y="365.1" width="16.4" height="26.9" fill="#4b9ae8"/>
<rect x="109.5" y="365.1" width="16.4" height="26.9" fill="url(#hatch)"/>
<line x1="117.8" y1="361.8" x2="117.8" y2="367.5" stroke="#173a5e" stroke-width="1.4"/>
<line x1="110.8" y1="367.5" x2="124.7" y2="367.5" stroke="#173a5e" stroke-width="1.4"/>
<line x1="110.8" y1="361.8" x2="124.7" y2="361.8" stroke="#173a5e" stroke-width="1.4"/>
<text x="117.8" y="356.8" font-family="DejaVu Sans, Helvetica, Arial, sans-serif" font-size="9" fill="#202124" text-anchor="middle">94</text>
</g>
<text x="117.8" y="399.0" font-family="DejaVu Sans, Helvetica, Arial, sans-serif" font-size="10" fill="#5f6368" text-anchor="end" transform="rotate(-90 117.8 399.0)">Apple M2 10c</text>
<g><title>Apple M3 10c: 94.3 M cell-evals/s; workload/model range 87.9–105.5 (not CI)</title>
<rect x="136.0" y="365.0" width="16.4" height="27.0" fill="#4b9ae8"/>
<rect x="136.0" y="365.0" width="16.4" height="27.0" fill="url(#hatch)"/>
<line x1="144.2" y1="361.8" x2="144.2" y2="366.9" stroke="#173a5e" stroke-width="1.4"/>
<line x1="137.3" y1="366.9" x2="151.2" y2="366.9" stroke="#173a5e" stroke-width="1.4"/>
<line x1="137.3" y1="361.8" x2="151.2" y2="361.8" stroke="#173a5e" stroke-width="1.4"/>
<text x="144.2" y="356.8" font-family="DejaVu Sans, Helvetica, Arial, sans-serif" font-size="9" fill="#202124" text-anchor="middle">94</text>
</g>
<text x="144.2" y="399.0" font-family="DejaVu Sans, Helvetica, Arial, sans-serif" font-size="10" fill="#5f6368" text-anchor="end" transform="rotate(-90 144.2 399.0)">Apple M3 10c</text>
<g><title>Apple M4 10c: 105.5 M cell-evals/s</title>
<rect x="162.5" y="361.8" width="16.4" height="30.2" fill="#0b4f9e"/>
<text x="170.8" y="356.8" font-family="DejaVu Sans, Helvetica, Arial, sans-serif" font-size="9" fill="#202124" text-anchor="middle">106</text>
</g>
<text x="170.8" y="399.0" font-family="DejaVu Sans, Helvetica, Arial, sans-serif" font-size="10" fill="#202124" font-weight="600" text-anchor="end" transform="rotate(-90 170.8 399.0)">Apple M4 10c</text>
<g><title>Apple M5 10c: 123.8 M cell-evals/s; workload/model range 105.5–134.5 (not CI)</title>
<rect x="189.0" y="356.6" width="16.4" height="35.4" fill="#4b9ae8"/>
<rect x="189.0" y="356.6" width="16.4" height="35.4" fill="url(#hatch)"/>
<line x1="197.2" y1="353.5" x2="197.2" y2="361.8" stroke="#173a5e" stroke-width="1.4"/>
<line x1="190.3" y1="361.8" x2="204.2" y2="361.8" stroke="#173a5e" stroke-width="1.4"/>
<line x1="190.3" y1="353.5" x2="204.2" y2="353.5" stroke="#173a5e" stroke-width="1.4"/>
<text x="197.2" y="348.5" font-family="DejaVu Sans, Helvetica, Arial, sans-serif" font-size="9" fill="#202124" text-anchor="middle">124</text>
</g>
<text x="197.2" y="399.0" font-family="DejaVu Sans, Helvetica, Arial, sans-serif" font-size="10" fill="#5f6368" text-anchor="end" transform="rotate(-90 197.2 399.0)">Apple M5 10c</text>
<g><title>Apple M3 Pro 18c: 147.4 M cell-evals/s; workload/model range 131.9–189.9 (not CI)</title>
<rect x="215.5" y="349.8" width="16.4" height="42.2" fill="#4b9ae8"/>
<rect x="215.5" y="349.8" width="16.4" height="42.2" fill="url(#hatch)"/>
<line x1="223.8" y1="337.7" x2="223.8" y2="354.3" stroke="#173a5e" stroke-width="1.4"/>
<line x1="216.8" y1="354.3" x2="230.7" y2="354.3" stroke="#173a5e" stroke-width="1.4"/>
<line x1="216.8" y1="337.7" x2="230.7" y2="337.7" stroke="#173a5e" stroke-width="1.4"/>
<text x="223.8" y="332.7" font-family="DejaVu Sans, Helvetica, Arial, sans-serif" font-size="9" fill="#202124" text-anchor="middle">147</text>
</g>
<text x="223.8" y="399.0" font-family="DejaVu Sans, Helvetica, Arial, sans-serif" font-size="10" fill="#5f6368" text-anchor="end" transform="rotate(-90 223.8 399.0)">Apple M3 Pro 18c</text>
<g><title>Apple M1 Pro 16c: 154.0 M cell-evals/s; workload/model range 127.3–175.9 (not CI)</title>
<rect x="242.0" y="348.0" width="16.4" height="44.0" fill="#4b9ae8"/>
<rect x="242.0" y="348.0" width="16.4" height="44.0" fill="url(#hatch)"/>
<line x1="250.2" y1="341.7" x2="250.2" y2="355.6" stroke="#173a5e" stroke-width="1.4"/>
<line x1="243.3" y1="355.6" x2="257.2" y2="355.6" stroke="#173a5e" stroke-width="1.4"/>
<line x1="243.3" y1="341.7" x2="257.2" y2="341.7" stroke="#173a5e" stroke-width="1.4"/>
<text x="250.2" y="336.7" font-family="DejaVu Sans, Helvetica, Arial, sans-serif" font-size="9" fill="#202124" text-anchor="middle">154</text>
</g>
<text x="250.2" y="399.0" font-family="DejaVu Sans, Helvetica, Arial, sans-serif" font-size="10" fill="#5f6368" text-anchor="end" transform="rotate(-90 250.2 399.0)">Apple M1 Pro 16c</text>
<g><title>Apple M2 Pro 19c: 176.8 M cell-evals/s; workload/model range 162.6–200.5 (not CI)</title>
<rect x="268.5" y="341.4" width="16.4" height="50.6" fill="#4b9ae8"/>
<rect x="268.5" y="341.4" width="16.4" height="50.6" fill="url(#hatch)"/>
<line x1="276.8" y1="334.7" x2="276.8" y2="345.5" stroke="#173a5e" stroke-width="1.4"/>
<line x1="269.8" y1="345.5" x2="283.7" y2="345.5" stroke="#173a5e" stroke-width="1.4"/>
<line x1="269.8" y1="334.7" x2="283.7" y2="334.7" stroke="#173a5e" stroke-width="1.4"/>
<text x="276.8" y="329.7" font-family="DejaVu Sans, Helvetica, Arial, sans-serif" font-size="9" fill="#202124" text-anchor="middle">177</text>
</g>
<text x="276.8" y="399.0" font-family="DejaVu Sans, Helvetica, Arial, sans-serif" font-size="10" fill="#5f6368" text-anchor="end" transform="rotate(-90 276.8 399.0)">Apple M2 Pro 19c</text>
<g><title>Apple M4 Pro 16c: 209.8 M cell-evals/s; workload/model range 168.8–240.0 (not CI)</title>
<rect x="295.0" y="332.0" width="16.4" height="60.0" fill="#4b9ae8"/>
<rect x="295.0" y="332.0" width="16.4" height="60.0" fill="url(#hatch)"/>
<line x1="303.2" y1="323.3" x2="303.2" y2="343.7" stroke="#173a5e" stroke-width="1.4"/>
<line x1="296.3" y1="343.7" x2="310.2" y2="343.7" stroke="#173a5e" stroke-width="1.4"/>
<line x1="296.3" y1="323.3" x2="310.2" y2="323.3" stroke="#173a5e" stroke-width="1.4"/>
<text x="303.2" y="318.3" font-family="DejaVu Sans, Helvetica, Arial, sans-serif" font-size="9" fill="#202124" text-anchor="middle">210</text>
</g>
<text x="303.2" y="399.0" font-family="DejaVu Sans, Helvetica, Arial, sans-serif" font-size="10" fill="#5f6368" text-anchor="end" transform="rotate(-90 303.2 399.0)">Apple M4 Pro 16c</text>
<g><title>Apple M4 Pro 20c: 236.5 M cell-evals/s; workload/model range 210.9–261.7 (not CI)</title>
<rect x="321.5" y="324.4" width="16.4" height="67.6" fill="#4b9ae8"/>
<rect x="321.5" y="324.4" width="16.4" height="67.6" fill="url(#hatch)"/>
<line x1="329.8" y1="317.2" x2="329.8" y2="331.7" stroke="#173a5e" stroke-width="1.4"/>
<line x1="322.8" y1="331.7" x2="336.7" y2="331.7" stroke="#173a5e" stroke-width="1.4"/>
<line x1="322.8" y1="317.2" x2="336.7" y2="317.2" stroke="#173a5e" stroke-width="1.4"/>
<text x="329.8" y="312.2" font-family="DejaVu Sans, Helvetica, Arial, sans-serif" font-size="9" fill="#202124" text-anchor="middle">236</text>
</g>
<text x="329.8" y="399.0" font-family="DejaVu Sans, Helvetica, Arial, sans-serif" font-size="10" fill="#5f6368" text-anchor="end" transform="rotate(-90 329.8 399.0)">Apple M4 Pro 20c</text>
<g><title>Apple M5 Pro 16c: 239.1 M cell-evals/s; workload/model range 168.8–271.0 (not CI)</title>
<rect x="348.0" y="323.6" width="16.4" height="68.4" fill="#4b9ae8"/>
<rect x="348.0" y="323.6" width="16.4" height="68.4" fill="url(#hatch)"/>
<line x1="356.2" y1="314.5" x2="356.2" y2="343.7" stroke="#173a5e" stroke-width="1.4"/>
<line x1="349.3" y1="343.7" x2="363.2" y2="343.7" stroke="#173a5e" stroke-width="1.4"/>
<line x1="349.3" y1="314.5" x2="363.2" y2="314.5" stroke="#173a5e" stroke-width="1.4"/>
<text x="356.2" y="309.5" font-family="DejaVu Sans, Helvetica, Arial, sans-serif" font-size="9" fill="#202124" text-anchor="middle">239</text>
</g>
<text x="356.2" y="399.0" font-family="DejaVu Sans, Helvetica, Arial, sans-serif" font-size="10" fill="#5f6368" text-anchor="end" transform="rotate(-90 356.2 399.0)">Apple M5 Pro 16c</text>
<g><title>Apple M5 Pro 20c: 253.3 M cell-evals/s; workload/model range 211.0–274.6 (not CI)</title>
<rect x="374.5" y="319.6" width="16.4" height="72.4" fill="#4b9ae8"/>
<rect x="374.5" y="319.6" width="16.4" height="72.4" fill="url(#hatch)"/>
<line x1="382.8" y1="313.5" x2="382.8" y2="331.6" stroke="#173a5e" stroke-width="1.4"/>
<line x1="375.8" y1="331.6" x2="389.7" y2="331.6" stroke="#173a5e" stroke-width="1.4"/>
<line x1="375.8" y1="313.5" x2="389.7" y2="313.5" stroke="#173a5e" stroke-width="1.4"/>
<text x="382.8" y="308.5" font-family="DejaVu Sans, Helvetica, Arial, sans-serif" font-size="9" fill="#202124" text-anchor="middle">253</text>
</g>
<text x="382.8" y="399.0" font-family="DejaVu Sans, Helvetica, Arial, sans-serif" font-size="10" fill="#5f6368" text-anchor="end" transform="rotate(-90 382.8 399.0)">Apple M5 Pro 20c</text>
<g><title>Apple M3 Max 30c: 272.3 M cell-evals/s; workload/model range 257.3–316.5 (not CI)</title>
<rect x="401.0" y="314.1" width="16.4" height="77.9" fill="#4b9ae8"/>
<rect x="401.0" y="314.1" width="16.4" height="77.9" fill="url(#hatch)"/>
<line x1="409.2" y1="301.5" x2="409.2" y2="318.4" stroke="#173a5e" stroke-width="1.4"/>
<line x1="402.3" y1="318.4" x2="416.2" y2="318.4" stroke="#173a5e" stroke-width="1.4"/>
<line x1="402.3" y1="301.5" x2="416.2" y2="301.5" stroke="#173a5e" stroke-width="1.4"/>
<text x="409.2" y="296.5" font-family="DejaVu Sans, Helvetica, Arial, sans-serif" font-size="9" fill="#202124" text-anchor="middle">272</text>
</g>
<text x="409.2" y="399.0" font-family="DejaVu Sans, Helvetica, Arial, sans-serif" font-size="10" fill="#5f6368" text-anchor="end" transform="rotate(-90 409.2 399.0)">Apple M3 Max 30c</text>
<g><title>Apple M1 Max 32c: 285.1 M cell-evals/s; workload/model range 253.1–351.7 (not CI)</title>
<rect x="427.5" y="310.5" width="16.4" height="81.5" fill="#4b9ae8"/>
<rect x="427.5" y="310.5" width="16.4" height="81.5" fill="url(#hatch)"/>
<line x1="435.8" y1="291.4" x2="435.8" y2="319.6" stroke="#173a5e" stroke-width="1.4"/>
<line x1="428.8" y1="319.6" x2="442.7" y2="319.6" stroke="#173a5e" stroke-width="1.4"/>
<line x1="428.8" y1="291.4" x2="442.7" y2="291.4" stroke="#173a5e" stroke-width="1.4"/>
<text x="435.8" y="286.4" font-family="DejaVu Sans, Helvetica, Arial, sans-serif" font-size="9" fill="#202124" text-anchor="middle">285</text>
</g>
<text x="435.8" y="399.0" font-family="DejaVu Sans, Helvetica, Arial, sans-serif" font-size="10" fill="#5f6368" text-anchor="end" transform="rotate(-90 435.8 399.0)">Apple M1 Max 32c</text>
<g><title>Apple M2 Max 38c: 332.9 M cell-evals/s; workload/model range 306.7–401.0 (not CI)</title>
<rect x="454.0" y="296.8" width="16.4" height="95.2" fill="#4b9ae8"/>
<rect x="454.0" y="296.8" width="16.4" height="95.2" fill="url(#hatch)"/>
<line x1="462.2" y1="277.3" x2="462.2" y2="304.3" stroke="#173a5e" stroke-width="1.4"/>
<line x1="455.3" y1="304.3" x2="469.2" y2="304.3" stroke="#173a5e" stroke-width="1.4"/>
<line x1="455.3" y1="277.3" x2="469.2" y2="277.3" stroke="#173a5e" stroke-width="1.4"/>
<text x="462.2" y="272.3" font-family="DejaVu Sans, Helvetica, Arial, sans-serif" font-size="9" fill="#202124" text-anchor="middle">333</text>
</g>
<text x="462.2" y="399.0" font-family="DejaVu Sans, Helvetica, Arial, sans-serif" font-size="10" fill="#5f6368" text-anchor="end" transform="rotate(-90 462.2 399.0)">Apple M2 Max 38c</text>
<g><title>Apple M4 Max 32c: 335.2 M cell-evals/s; workload/model range 323.5–360.5 (not CI)</title>
<rect x="480.5" y="296.1" width="16.4" height="95.9" fill="#4b9ae8"/>
<rect x="480.5" y="296.1" width="16.4" height="95.9" fill="url(#hatch)"/>
<line x1="488.8" y1="288.9" x2="488.8" y2="299.5" stroke="#173a5e" stroke-width="1.4"/>
<line x1="481.8" y1="299.5" x2="495.7" y2="299.5" stroke="#173a5e" stroke-width="1.4"/>
<line x1="481.8" y1="288.9" x2="495.7" y2="288.9" stroke="#173a5e" stroke-width="1.4"/>
<text x="488.8" y="283.9" font-family="DejaVu Sans, Helvetica, Arial, sans-serif" font-size="9" fill="#202124" text-anchor="middle">335</text>
</g>
<text x="488.8" y="399.0" font-family="DejaVu Sans, Helvetica, Arial, sans-serif" font-size="10" fill="#5f6368" text-anchor="end" transform="rotate(-90 488.8 399.0)">Apple M4 Max 32c</text>
<g><title>Apple M3 Max 40c: 359.6 M cell-evals/s; workload/model range 310.9–422.1 (not CI)</title>
<rect x="507.0" y="289.1" width="16.4" height="102.9" fill="#4b9ae8"/>
<rect x="507.0" y="289.1" width="16.4" height="102.9" fill="url(#hatch)"/>
<line x1="515.2" y1="271.3" x2="515.2" y2="303.1" stroke="#173a5e" stroke-width="1.4"/>
<line x1="508.3" y1="303.1" x2="522.2" y2="303.1" stroke="#173a5e" stroke-width="1.4"/>
<line x1="508.3" y1="271.3" x2="522.2" y2="271.3" stroke="#173a5e" stroke-width="1.4"/>
<text x="515.2" y="266.3" font-family="DejaVu Sans, Helvetica, Arial, sans-serif" font-size="9" fill="#202124" text-anchor="middle">360</text>
</g>
<text x="515.2" y="399.0" font-family="DejaVu Sans, Helvetica, Arial, sans-serif" font-size="10" fill="#5f6368" text-anchor="end" transform="rotate(-90 515.2 399.0)">Apple M3 Max 40c</text>
<g><title>Apple M5 Max 32c: 385.3 M cell-evals/s; workload/model range 337.6–404.5 (not CI)</title>
<rect x="533.5" y="281.8" width="16.4" height="110.2" fill="#4b9ae8"/>
<rect x="533.5" y="281.8" width="16.4" height="110.2" fill="url(#hatch)"/>
<line x1="541.8" y1="276.3" x2="541.8" y2="295.4" stroke="#173a5e" stroke-width="1.4"/>
<line x1="534.8" y1="295.4" x2="548.7" y2="295.4" stroke="#173a5e" stroke-width="1.4"/>
<line x1="534.8" y1="276.3" x2="548.7" y2="276.3" stroke="#173a5e" stroke-width="1.4"/>
<text x="541.8" y="271.3" font-family="DejaVu Sans, Helvetica, Arial, sans-serif" font-size="9" fill="#202124" text-anchor="middle">385</text>
</g>
<text x="541.8" y="399.0" font-family="DejaVu Sans, Helvetica, Arial, sans-serif" font-size="10" fill="#5f6368" text-anchor="end" transform="rotate(-90 541.8 399.0)">Apple M5 Max 32c</text>
<g><title>Apple M4 Max 40c: 416.0 M cell-evals/s; workload/model range 391.3–480.1 (not CI)</title>
<rect x="560.0" y="273.0" width="16.4" height="119.0" fill="#4b9ae8"/>
<rect x="560.0" y="273.0" width="16.4" height="119.0" fill="url(#hatch)"/>
<line x1="568.2" y1="254.7" x2="568.2" y2="280.1" stroke="#173a5e" stroke-width="1.4"/>
<line x1="561.3" y1="280.1" x2="575.2" y2="280.1" stroke="#173a5e" stroke-width="1.4"/>
<line x1="561.3" y1="254.7" x2="575.2" y2="254.7" stroke="#173a5e" stroke-width="1.4"/>
<text x="568.2" y="249.7" font-family="DejaVu Sans, Helvetica, Arial, sans-serif" font-size="9" fill="#202124" text-anchor="middle">416</text>
</g>
<text x="568.2" y="399.0" font-family="DejaVu Sans, Helvetica, Arial, sans-serif" font-size="10" fill="#5f6368" text-anchor="end" transform="rotate(-90 568.2 399.0)">Apple M4 Max 40c</text>
<g><title>Apple M5 Max 40c: 478.3 M cell-evals/s; workload/model range 422.1–539.9 (not CI)</title>
<rect x="586.5" y="255.2" width="16.4" height="136.8" fill="#4b9ae8"/>
<rect x="586.5" y="255.2" width="16.4" height="136.8" fill="url(#hatch)"/>
<line x1="594.8" y1="237.6" x2="594.8" y2="271.3" stroke="#173a5e" stroke-width="1.4"/>
<line x1="587.8" y1="271.3" x2="601.7" y2="271.3" stroke="#173a5e" stroke-width="1.4"/>
<line x1="587.8" y1="237.6" x2="601.7" y2="237.6" stroke="#173a5e" stroke-width="1.4"/>
<text x="594.8" y="232.6" font-family="DejaVu Sans, Helvetica, Arial, sans-serif" font-size="9" fill="#202124" text-anchor="middle">478</text>
</g>
<text x="594.8" y="399.0" font-family="DejaVu Sans, Helvetica, Arial, sans-serif" font-size="10" fill="#5f6368" text-anchor="end" transform="rotate(-90 594.8 399.0)">Apple M5 Max 40c</text>
<g><title>Apple M1 Ultra 64c: 497.0 M cell-evals/s; workload/model range 413.5–703.4 (not CI)</title>
<rect x="613.0" y="249.9" width="16.4" height="142.1" fill="#4b9ae8"/>
<rect x="613.0" y="249.9" width="16.4" height="142.1" fill="url(#hatch)"/>
<line x1="621.2" y1="190.8" x2="621.2" y2="273.7" stroke="#173a5e" stroke-width="1.4"/>
<line x1="614.3" y1="273.7" x2="628.2" y2="273.7" stroke="#173a5e" stroke-width="1.4"/>
<line x1="614.3" y1="190.8" x2="628.2" y2="190.8" stroke="#173a5e" stroke-width="1.4"/>
<text x="621.2" y="185.8" font-family="DejaVu Sans, Helvetica, Arial, sans-serif" font-size="9" fill="#202124" text-anchor="middle">497</text>
</g>
<text x="621.2" y="399.0" font-family="DejaVu Sans, Helvetica, Arial, sans-serif" font-size="10" fill="#5f6368" text-anchor="end" transform="rotate(-90 621.2 399.0)">Apple M1 Ultra 64c</text>
<g><title>Apple M3 Ultra 60c: 523.7 M cell-evals/s; workload/model range 437.7–720.3 (not CI)</title>
<rect x="639.5" y="242.2" width="16.4" height="149.8" fill="#4b9ae8"/>
<rect x="639.5" y="242.2" width="16.4" height="149.8" fill="url(#hatch)"/>
<line x1="647.8" y1="186.0" x2="647.8" y2="266.8" stroke="#173a5e" stroke-width="1.4"/>
<line x1="640.8" y1="266.8" x2="654.7" y2="266.8" stroke="#173a5e" stroke-width="1.4"/>
<line x1="640.8" y1="186.0" x2="654.7" y2="186.0" stroke="#173a5e" stroke-width="1.4"/>
<text x="647.8" y="181.0" font-family="DejaVu Sans, Helvetica, Arial, sans-serif" font-size="9" fill="#202124" text-anchor="middle">524</text>
</g>
<text x="647.8" y="399.0" font-family="DejaVu Sans, Helvetica, Arial, sans-serif" font-size="10" fill="#5f6368" text-anchor="end" transform="rotate(-90 647.8 399.0)">Apple M3 Ultra 60c</text>
<g><title>Apple M2 Ultra 76c: 576.5 M cell-evals/s; workload/model range 462.9–801.9 (not CI)</title>
<rect x="666.0" y="227.1" width="16.4" height="164.9" fill="#4b9ae8"/>
<rect x="666.0" y="227.1" width="16.4" height="164.9" fill="url(#hatch)"/>
<line x1="674.2" y1="162.7" x2="674.2" y2="259.6" stroke="#173a5e" stroke-width="1.4"/>
<line x1="667.3" y1="259.6" x2="681.2" y2="259.6" stroke="#173a5e" stroke-width="1.4"/>
<line x1="667.3" y1="162.7" x2="681.2" y2="162.7" stroke="#173a5e" stroke-width="1.4"/>
<text x="674.2" y="157.7" font-family="DejaVu Sans, Helvetica, Arial, sans-serif" font-size="9" fill="#202124" text-anchor="middle">577</text>
</g>
<text x="674.2" y="399.0" font-family="DejaVu Sans, Helvetica, Arial, sans-serif" font-size="10" fill="#5f6368" text-anchor="end" transform="rotate(-90 674.2 399.0)">Apple M2 Ultra 76c</text>
<g><title>Apple M3 Ultra 80c: 735.3 M cell-evals/s; workload/model range 448.2–844.1 (not CI)</title>
<rect x="692.5" y="181.7" width="16.4" height="210.3" fill="#4b9ae8"/>
<rect x="692.5" y="181.7" width="16.4" height="210.3" fill="url(#hatch)"/>
<line x1="700.8" y1="150.6" x2="700.8" y2="263.8" stroke="#173a5e" stroke-width="1.4"/>
<line x1="693.8" y1="263.8" x2="707.7" y2="263.8" stroke="#173a5e" stroke-width="1.4"/>
<line x1="693.8" y1="150.6" x2="707.7" y2="150.6" stroke="#173a5e" stroke-width="1.4"/>
<text x="700.8" y="145.6" font-family="DejaVu Sans, Helvetica, Arial, sans-serif" font-size="9" fill="#202124" text-anchor="middle">735</text>
</g>
<text x="700.8" y="399.0" font-family="DejaVu Sans, Helvetica, Arial, sans-serif" font-size="10" fill="#5f6368" text-anchor="end" transform="rotate(-90 700.8 399.0)">Apple M3 Ultra 80c</text>
<rect x="78.0" y="531" width="11" height="11" fill="#0b4f9e"/>
<text x="95.0" y="540" font-family="DejaVu Sans, Helvetica, Arial, sans-serif" font-size="11" fill="#202124">M4 10c MacBook Air, measured</text>
<rect x="300.0" y="531" width="11" height="11" fill="#4b9ae8"/>
<rect x="300.0" y="531" width="11" height="11" fill="url(#hatch)"/>
<line x1="305.5" y1="530.0" x2="305.5" y2="543.0" stroke="#173a5e" stroke-width="1.4"/>
<line x1="301.5" y1="543.0" x2="309.5" y2="543.0" stroke="#173a5e" stroke-width="1.4"/>
<line x1="301.5" y1="530.0" x2="309.5" y2="530.0" stroke="#173a5e" stroke-width="1.4"/>
<text x="317.0" y="540" font-family="DejaVu Sans, Helvetica, Arial, sans-serif" font-size="11" fill="#202124">proxy ensemble; whisker = workload/model range, not CI</text>
</svg>
